<?xml version="1.0" encoding="utf-8" standalone="no"?>
<!DOCTYPE svg PUBLIC "-//W3C//DTD SVG 1.1//EN"
  "http://www.w3.org/Graphics/SVG/1.1/DTD/svg11.dtd">
<!-- Created with matplotlib (https://matplotlib.org/) -->
<svg height="584.049409pt" version="1.1" viewBox="0 0 730.860295 584.049409" width="730.860295pt" xmlns="http://www.w3.org/2000/svg" xmlns:xlink="http://www.w3.org/1999/xlink">
 <metadata>
  <rdf:RDF xmlns:cc="http://creativecommons.org/ns#" xmlns:dc="http://purl.org/dc/elements/1.1/" xmlns:rdf="http://www.w3.org/1999/02/22-rdf-syntax-ns#">
   <cc:Work>
    <dc:type rdf:resource="http://purl.org/dc/dcmitype/StillImage"/>
    <dc:date>2024-05-02T13:34:30.477705</dc:date>
    <dc:format>image/svg+xml</dc:format>
    <dc:creator>
     <cc:Agent>
      <dc:title>Matplotlib v3.3.4, https://matplotlib.org/</dc:title>
     </cc:Agent>
    </dc:creator>
   </cc:Work>
  </rdf:RDF>
 </metadata>
 <defs>
  <style type="text/css">*{stroke-linecap:butt;stroke-linejoin:round;}</style>
 </defs>
 <g id="figure_1">
  <g id="patch_1">
   <path d="M 0 584.049409 
L 730.860295 584.049409 
L 730.860295 0 
L 0 0 
z
" style="fill:#ffffff;stroke:#ffffff;stroke-linejoin:miter;"/>
  </g>
  <g id="axes_1">
   <g id="patch_2">
    <path d="M 54.060295 513.205937 
L 723.660295 513.205937 
L 723.660295 69.685937 
L 54.060295 69.685937 
z
" style="fill:#ebebeb;"/>
   </g>
   <g id="matplotlib.axis_1">
    <g id="xtick_1">
     <g id="line2d_1">
      <path clip-path="url(#pbd6f2c78d1)" d="M 73.011239 513.205937 
L 73.011239 69.685937 
" style="fill:none;stroke:#ffffff;"/>
     </g>
     <g id="line2d_2">
      <path d="M 73.011239 513.205937 
" style="fill:none;stroke:#333333;stroke-width:1.5;"/>
      <defs>
       <path d="M 0 0 
L 0 2.75 
" id="mecaed9a891" style="stroke:#000000;"/>
      </defs>
      <g>
       <use style="fill:#333333;stroke:#000000;" x="73.011239" xlink:href="#mecaed9a891" y="513.205937"/>
      </g>
     </g>
     <g id="text_1">
      <!-- S. mediterranea -->
      <g style="fill:#4d4d4d;" transform="translate(10.543312 559.484287)rotate(-30)scale(0.088 -0.088)">
       <defs>
        <path d="M 60.296875 70.515625 
L 58.40625 60.890625 
Q 53.46875 63.53125 48.609375 64.875 
Q 43.75 66.21875 39.203125 66.21875 
Q 30.375 66.21875 25.140625 62.359375 
Q 19.921875 58.5 19.921875 52.09375 
Q 19.921875 48.578125 21.84375 46.703125 
Q 23.78125 44.828125 31.78125 42.671875 
L 37.703125 41.21875 
Q 47.703125 38.625 51.609375 34.640625 
Q 55.515625 30.671875 55.515625 23.484375 
Q 55.515625 12.453125 46.84375 5.515625 
Q 38.1875 -1.421875 24.03125 -1.421875 
Q 18.21875 -1.421875 12.359375 -0.265625 
Q 6.5 0.875 0.59375 3.21875 
L 2.59375 13.375 
Q 8.015625 10.015625 13.453125 8.296875 
Q 18.890625 6.59375 24.3125 6.59375 
Q 33.546875 6.59375 39.109375 10.6875 
Q 44.671875 14.796875 44.671875 21.390625 
Q 44.671875 25.78125 42.453125 28.046875 
Q 40.234375 30.328125 32.90625 32.171875 
L 27 33.6875 
Q 16.890625 36.328125 13.203125 39.765625 
Q 9.515625 43.21875 9.515625 49.421875 
Q 9.515625 60.296875 17.890625 67.25 
Q 26.265625 74.21875 39.703125 74.21875 
Q 44.921875 74.21875 50.046875 73.28125 
Q 55.171875 72.359375 60.296875 70.515625 
z
" id="DejaVuSans-Oblique-83"/>
        <path d="M 8.203125 12.40625 
L 18.5 12.40625 
L 16.109375 0 
L 5.8125 0 
z
" id="DejaVuSans-Oblique-46"/>
        <path id="DejaVuSans-Oblique-32"/>
        <path d="M 89.796875 33.015625 
L 83.40625 0 
L 74.421875 0 
L 80.71875 32.71875 
Q 81.109375 34.8125 81.296875 36.328125 
Q 81.5 37.84375 81.5 38.921875 
Q 81.5 43.3125 79.046875 45.75 
Q 76.609375 48.1875 72.21875 48.1875 
Q 65.671875 48.1875 60.546875 43.28125 
Q 55.421875 38.375 53.90625 30.515625 
L 47.90625 0 
L 38.921875 0 
L 45.3125 32.71875 
Q 45.703125 34.515625 45.890625 36.046875 
Q 46.09375 37.59375 46.09375 38.8125 
Q 46.09375 43.265625 43.65625 45.71875 
Q 41.21875 48.1875 36.921875 48.1875 
Q 30.28125 48.1875 25.140625 43.28125 
Q 20.015625 38.375 18.5 30.515625 
L 12.5 0 
L 3.515625 0 
L 14.203125 54.6875 
L 23.1875 54.6875 
L 21.484375 46.1875 
Q 25.140625 50.984375 30.046875 53.484375 
Q 34.96875 56 40.578125 56 
Q 46.53125 56 50.359375 52.875 
Q 54.203125 49.75 54.984375 44.1875 
Q 59.078125 49.953125 64.46875 52.96875 
Q 69.875 56 75.875 56 
Q 82.90625 56 86.734375 51.953125 
Q 90.578125 47.90625 90.578125 40.484375 
Q 90.578125 38.875 90.375 36.9375 
Q 90.1875 35.015625 89.796875 33.015625 
z
" id="DejaVuSans-Oblique-109"/>
        <path d="M 48.09375 32.234375 
Q 48.25 33.015625 48.3125 33.84375 
Q 48.390625 34.671875 48.390625 35.5 
Q 48.390625 41.453125 44.890625 44.921875 
Q 41.40625 48.390625 35.40625 48.390625 
Q 28.71875 48.390625 23.578125 44.15625 
Q 18.453125 39.9375 15.828125 32.171875 
z
M 55.90625 25.203125 
L 14.109375 25.203125 
Q 13.8125 23.34375 13.71875 22.265625 
Q 13.625 21.1875 13.625 20.40625 
Q 13.625 13.625 17.796875 9.90625 
Q 21.96875 6.203125 29.59375 6.203125 
Q 35.453125 6.203125 40.671875 7.515625 
Q 45.90625 8.84375 50.390625 11.375 
L 48.6875 2.484375 
Q 43.84375 0.53125 38.6875 -0.4375 
Q 33.546875 -1.421875 28.21875 -1.421875 
Q 16.84375 -1.421875 10.71875 4.015625 
Q 4.59375 9.46875 4.59375 19.484375 
Q 4.59375 28.03125 7.640625 35.375 
Q 10.6875 42.71875 16.609375 48.484375 
Q 20.40625 52.09375 25.65625 54.046875 
Q 30.90625 56 36.8125 56 
Q 46.09375 56 51.578125 50.4375 
Q 57.078125 44.875 57.078125 35.5 
Q 57.078125 33.25 56.78125 30.6875 
Q 56.5 28.125 55.90625 25.203125 
z
" id="DejaVuSans-Oblique-101"/>
        <path d="M 41.796875 8.203125 
Q 38.1875 3.46875 33.25 1.015625 
Q 28.328125 -1.421875 22.3125 -1.421875 
Q 14.109375 -1.421875 9.34375 4.171875 
Q 4.59375 9.765625 4.59375 19.484375 
Q 4.59375 27.59375 7.46875 34.9375 
Q 10.359375 42.28125 15.828125 48.09375 
Q 19.4375 51.953125 23.96875 53.96875 
Q 28.515625 56 33.5 56 
Q 38.765625 56 42.796875 53.453125 
Q 46.828125 50.921875 49.03125 46.1875 
L 54.890625 75.984375 
L 63.921875 75.984375 
L 49.125 0 
L 40.09375 0 
z
M 13.921875 21.09375 
Q 13.921875 14.015625 17.109375 10.0625 
Q 20.3125 6.109375 25.984375 6.109375 
Q 30.171875 6.109375 33.765625 8.125 
Q 37.359375 10.15625 40.09375 14.109375 
Q 42.96875 18.21875 44.625 23.578125 
Q 46.296875 28.953125 46.296875 34.1875 
Q 46.296875 40.96875 43.09375 44.765625 
Q 39.890625 48.578125 34.28125 48.578125 
Q 30.03125 48.578125 26.359375 46.578125 
Q 22.703125 44.578125 20.125 40.828125 
Q 17.28125 36.765625 15.59375 31.390625 
Q 13.921875 26.03125 13.921875 21.09375 
z
" id="DejaVuSans-Oblique-100"/>
        <path d="M 18.3125 75.984375 
L 27.296875 75.984375 
L 25.09375 64.59375 
L 16.109375 64.59375 
z
M 14.203125 54.6875 
L 23.1875 54.6875 
L 12.5 0 
L 3.515625 0 
z
" id="DejaVuSans-Oblique-105"/>
        <path d="M 42.28125 54.6875 
L 40.921875 47.703125 
L 23 47.703125 
L 17.1875 18.015625 
Q 16.890625 16.359375 16.75 15.234375 
Q 16.609375 14.109375 16.609375 13.484375 
Q 16.609375 10.359375 18.484375 8.9375 
Q 20.359375 7.515625 24.515625 7.515625 
L 33.59375 7.515625 
L 32.078125 0 
L 23.484375 0 
Q 15.484375 0 11.546875 3.125 
Q 7.625 6.25 7.625 12.59375 
Q 7.625 13.71875 7.765625 15.0625 
Q 7.90625 16.40625 8.203125 18.015625 
L 14.015625 47.703125 
L 6.390625 47.703125 
L 7.8125 54.6875 
L 15.28125 54.6875 
L 18.3125 70.21875 
L 27.296875 70.21875 
L 24.3125 54.6875 
z
" id="DejaVuSans-Oblique-116"/>
        <path d="M 44.578125 46.390625 
Q 43.21875 47.125 41.453125 47.515625 
Q 39.703125 47.90625 37.703125 47.90625 
Q 30.515625 47.90625 25.140625 42.453125 
Q 19.78125 37.015625 18.015625 27.875 
L 12.5 0 
L 3.515625 0 
L 14.203125 54.6875 
L 23.1875 54.6875 
L 21.484375 46.1875 
Q 25.046875 50.921875 30 53.453125 
Q 34.96875 56 40.578125 56 
Q 42.046875 56 43.453125 55.828125 
Q 44.875 55.671875 46.296875 55.28125 
z
" id="DejaVuSans-Oblique-114"/>
        <path d="M 53.71875 31.203125 
L 47.609375 0 
L 38.625 0 
L 40.28125 8.296875 
Q 36.328125 3.421875 31.265625 1 
Q 26.21875 -1.421875 20.015625 -1.421875 
Q 13.03125 -1.421875 8.5625 2.84375 
Q 4.109375 7.125 4.109375 13.8125 
Q 4.109375 23.390625 11.75 28.953125 
Q 19.390625 34.515625 32.8125 34.515625 
L 45.3125 34.515625 
L 45.796875 36.921875 
Q 45.90625 37.3125 45.953125 37.765625 
Q 46 38.234375 46 39.203125 
Q 46 43.5625 42.453125 45.96875 
Q 38.921875 48.390625 32.515625 48.390625 
Q 28.125 48.390625 23.5 47.265625 
Q 18.890625 46.140625 14.015625 43.890625 
L 15.578125 52.203125 
Q 20.65625 54.109375 25.515625 55.046875 
Q 30.375 56 34.90625 56 
Q 44.578125 56 49.625 51.796875 
Q 54.6875 47.609375 54.6875 39.59375 
Q 54.6875 37.984375 54.4375 35.8125 
Q 54.203125 33.640625 53.71875 31.203125 
z
M 44 27.484375 
L 35.015625 27.484375 
Q 23.96875 27.484375 18.671875 24.53125 
Q 13.375 21.578125 13.375 15.375 
Q 13.375 11.078125 16.078125 8.640625 
Q 18.796875 6.203125 23.578125 6.203125 
Q 30.90625 6.203125 36.375 11.453125 
Q 41.84375 16.703125 43.609375 25.484375 
z
" id="DejaVuSans-Oblique-97"/>
        <path d="M 55.71875 33.015625 
L 49.3125 0 
L 40.28125 0 
L 46.6875 32.671875 
Q 47.125 34.96875 47.359375 36.71875 
Q 47.609375 38.484375 47.609375 39.5 
Q 47.609375 43.609375 45.015625 45.890625 
Q 42.4375 48.1875 37.796875 48.1875 
Q 30.5625 48.1875 25.34375 43.375 
Q 20.125 38.578125 18.5 30.328125 
L 12.5 0 
L 3.515625 0 
L 14.109375 54.6875 
L 23.09375 54.6875 
L 21.296875 46.09375 
Q 25.046875 50.828125 30.3125 53.40625 
Q 35.59375 56 41.40625 56 
Q 48.640625 56 52.609375 52.09375 
Q 56.59375 48.1875 56.59375 41.109375 
Q 56.59375 39.359375 56.375 37.359375 
Q 56.15625 35.359375 55.71875 33.015625 
z
" id="DejaVuSans-Oblique-110"/>
       </defs>
       <use xlink:href="#DejaVuSans-Oblique-83"/>
       <use x="63.476562" xlink:href="#DejaVuSans-Oblique-46"/>
       <use x="95.263672" xlink:href="#DejaVuSans-Oblique-32"/>
       <use x="127.050781" xlink:href="#DejaVuSans-Oblique-109"/>
       <use x="224.462891" xlink:href="#DejaVuSans-Oblique-101"/>
       <use x="285.986328" xlink:href="#DejaVuSans-Oblique-100"/>
       <use x="349.462891" xlink:href="#DejaVuSans-Oblique-105"/>
       <use x="377.246094" xlink:href="#DejaVuSans-Oblique-116"/>
       <use x="416.455078" xlink:href="#DejaVuSans-Oblique-101"/>
       <use x="477.978516" xlink:href="#DejaVuSans-Oblique-114"/>
       <use x="519.091797" xlink:href="#DejaVuSans-Oblique-114"/>
       <use x="560.205078" xlink:href="#DejaVuSans-Oblique-97"/>
       <use x="621.484375" xlink:href="#DejaVuSans-Oblique-110"/>
       <use x="684.863281" xlink:href="#DejaVuSans-Oblique-101"/>
       <use x="746.386719" xlink:href="#DejaVuSans-Oblique-97"/>
      </g>
     </g>
    </g>
    <g id="xtick_2">
     <g id="line2d_3">
      <path clip-path="url(#pbd6f2c78d1)" d="M 104.596144 513.205937 
L 104.596144 69.685937 
" style="fill:none;stroke:#ffffff;"/>
     </g>
     <g id="line2d_4">
      <path d="M 104.596144 513.205937 
" style="fill:none;stroke:#333333;stroke-width:1.5;"/>
      <g>
       <use style="fill:#333333;stroke:#000000;" x="104.596144" xlink:href="#mecaed9a891" y="513.205937"/>
      </g>
     </g>
     <g id="text_2">
      <!-- M. lignano -->
      <g style="fill:#4d4d4d;" transform="translate(64.195844 546.743537)rotate(-30)scale(0.088 -0.088)">
       <defs>
        <path d="M 16.890625 72.90625 
L 31.6875 72.90625 
L 40.1875 23.78125 
L 68.40625 72.90625 
L 83.59375 72.90625 
L 69.390625 0 
L 59.8125 0 
L 72.21875 63.921875 
L 43.609375 14.015625 
L 33.984375 14.015625 
L 24.703125 64.109375 
L 12.3125 0 
L 2.6875 0 
z
" id="DejaVuSans-Oblique-77"/>
        <path d="M 18.3125 75.984375 
L 27.296875 75.984375 
L 12.5 0 
L 3.515625 0 
z
" id="DejaVuSans-Oblique-108"/>
        <path d="M 59.625 54.6875 
L 50.296875 6.78125 
Q 47.609375 -7.125 40.015625 -13.953125 
Q 32.421875 -20.796875 19.578125 -20.796875 
Q 14.84375 -20.796875 10.78125 -20.09375 
Q 6.734375 -19.390625 3.21875 -17.921875 
L 4.890625 -9.1875 
Q 8.203125 -11.328125 11.90625 -12.34375 
Q 15.625 -13.375 19.828125 -13.375 
Q 28.375 -13.375 33.859375 -8.703125 
Q 39.359375 -4.046875 41.109375 4.6875 
L 41.890625 8.796875 
Q 38.140625 4.5 33.15625 2.25 
Q 28.171875 0 22.40625 0 
Q 14.109375 0 9.34375 5.484375 
Q 4.59375 10.984375 4.59375 20.609375 
Q 4.59375 28.171875 7.46875 35.421875 
Q 10.359375 42.671875 15.578125 48.296875 
Q 19.046875 52 23.65625 54 
Q 28.265625 56 33.296875 56 
Q 38.8125 56 42.90625 53.4375 
Q 47.015625 50.875 49.03125 46.1875 
L 50.59375 54.6875 
z
M 46.09375 34.625 
Q 46.09375 41.265625 42.96875 44.875 
Q 39.84375 48.484375 34.078125 48.484375 
Q 30.515625 48.484375 27.296875 47.0625 
Q 24.078125 45.65625 21.78125 43.109375 
Q 18.0625 38.921875 15.984375 33.234375 
Q 13.921875 27.546875 13.921875 21.484375 
Q 13.921875 14.75 17.0625 11.125 
Q 20.21875 7.515625 26.125 7.515625 
Q 34.671875 7.515625 40.375 15.25 
Q 46.09375 23 46.09375 34.625 
z
" id="DejaVuSans-Oblique-103"/>
        <path d="M 25.390625 -1.421875 
Q 15.765625 -1.421875 10.171875 4.515625 
Q 4.59375 10.453125 4.59375 20.703125 
Q 4.59375 26.65625 6.515625 32.828125 
Q 8.453125 39.015625 11.53125 43.21875 
Q 16.359375 49.75 22.3125 52.875 
Q 28.265625 56 35.796875 56 
Q 45.125 56 50.859375 50.1875 
Q 56.59375 44.390625 56.59375 35.015625 
Q 56.59375 28.515625 54.6875 22.0625 
Q 52.78125 15.625 49.703125 11.375 
Q 44.921875 4.828125 38.96875 1.703125 
Q 33.015625 -1.421875 25.390625 -1.421875 
z
M 13.921875 21 
Q 13.921875 13.578125 17.015625 9.890625 
Q 20.125 6.203125 26.421875 6.203125 
Q 35.453125 6.203125 41.375 14.078125 
Q 47.3125 21.96875 47.3125 34.078125 
Q 47.3125 41.15625 44.140625 44.765625 
Q 40.96875 48.390625 34.8125 48.390625 
Q 29.734375 48.390625 25.78125 46.015625 
Q 21.828125 43.65625 18.703125 38.8125 
Q 16.40625 35.203125 15.15625 30.5625 
Q 13.921875 25.921875 13.921875 21 
z
" id="DejaVuSans-Oblique-111"/>
       </defs>
       <use xlink:href="#DejaVuSans-Oblique-77"/>
       <use x="86.279297" xlink:href="#DejaVuSans-Oblique-46"/>
       <use x="118.066406" xlink:href="#DejaVuSans-Oblique-32"/>
       <use x="149.853516" xlink:href="#DejaVuSans-Oblique-108"/>
       <use x="177.636719" xlink:href="#DejaVuSans-Oblique-105"/>
       <use x="205.419922" xlink:href="#DejaVuSans-Oblique-103"/>
       <use x="268.896484" xlink:href="#DejaVuSans-Oblique-110"/>
       <use x="332.275391" xlink:href="#DejaVuSans-Oblique-97"/>
       <use x="393.554688" xlink:href="#DejaVuSans-Oblique-110"/>
       <use x="456.933594" xlink:href="#DejaVuSans-Oblique-111"/>
      </g>
     </g>
    </g>
    <g id="xtick_3">
     <g id="line2d_5">
      <path clip-path="url(#pbd6f2c78d1)" d="M 136.18105 513.205937 
L 136.18105 69.685937 
" style="fill:none;stroke:#ffffff;"/>
     </g>
     <g id="line2d_6">
      <path d="M 136.18105 513.205937 
" style="fill:none;stroke:#333333;stroke-width:1.5;"/>
      <g>
       <use style="fill:#333333;stroke:#000000;" x="136.18105" xlink:href="#mecaed9a891" y="513.205937"/>
      </g>
     </g>
     <g id="text_3">
      <!-- S. mattheei -->
      <g style="fill:#4d4d4d;" transform="translate(91.189083 549.394537)rotate(-30)scale(0.088 -0.088)">
       <defs>
        <path d="M 55.71875 33.015625 
L 49.3125 0 
L 40.28125 0 
L 46.6875 32.671875 
Q 47.125 34.96875 47.359375 36.71875 
Q 47.609375 38.484375 47.609375 39.5 
Q 47.609375 43.609375 45.015625 45.890625 
Q 42.4375 48.1875 37.796875 48.1875 
Q 30.5625 48.1875 25.265625 43.296875 
Q 19.96875 38.421875 18.40625 30.328125 
L 12.5 0 
L 3.515625 0 
L 18.3125 75.984375 
L 27.296875 75.984375 
L 21.484375 46.09375 
Q 24.90625 50.6875 30.21875 53.34375 
Q 35.546875 56 41.40625 56 
Q 48.640625 56 52.609375 52.09375 
Q 56.59375 48.1875 56.59375 41.109375 
Q 56.59375 39.359375 56.375 37.359375 
Q 56.15625 35.359375 55.71875 33.015625 
z
" id="DejaVuSans-Oblique-104"/>
       </defs>
       <use xlink:href="#DejaVuSans-Oblique-83"/>
       <use x="63.476562" xlink:href="#DejaVuSans-Oblique-46"/>
       <use x="95.263672" xlink:href="#DejaVuSans-Oblique-32"/>
       <use x="127.050781" xlink:href="#DejaVuSans-Oblique-109"/>
       <use x="224.462891" xlink:href="#DejaVuSans-Oblique-97"/>
       <use x="285.742188" xlink:href="#DejaVuSans-Oblique-116"/>
       <use x="324.951172" xlink:href="#DejaVuSans-Oblique-116"/>
       <use x="364.160156" xlink:href="#DejaVuSans-Oblique-104"/>
       <use x="427.539062" xlink:href="#DejaVuSans-Oblique-101"/>
       <use x="489.0625" xlink:href="#DejaVuSans-Oblique-101"/>
       <use x="550.585938" xlink:href="#DejaVuSans-Oblique-105"/>
      </g>
     </g>
    </g>
    <g id="xtick_4">
     <g id="line2d_7">
      <path clip-path="url(#pbd6f2c78d1)" d="M 167.765956 513.205937 
L 167.765956 69.685937 
" style="fill:none;stroke:#ffffff;"/>
     </g>
     <g id="line2d_8">
      <path d="M 167.765956 513.205937 
" style="fill:none;stroke:#333333;stroke-width:1.5;"/>
      <g>
       <use style="fill:#333333;stroke:#000000;" x="167.765956" xlink:href="#mecaed9a891" y="513.205937"/>
      </g>
     </g>
     <g id="text_4">
      <!-- S. margrebowiei -->
      <g style="fill:#4d4d4d;" transform="translate(104.624045 559.873412)rotate(-30)scale(0.088 -0.088)">
       <defs>
        <path d="M 49.515625 33.40625 
Q 49.515625 40.484375 46.265625 44.484375 
Q 43.015625 48.484375 37.3125 48.484375 
Q 33.15625 48.484375 29.515625 46.453125 
Q 25.875 44.4375 23.1875 40.578125 
Q 20.359375 36.53125 18.71875 31.171875 
Q 17.09375 25.828125 17.09375 20.515625 
Q 17.09375 13.765625 20.28125 9.9375 
Q 23.484375 6.109375 29.109375 6.109375 
Q 33.34375 6.109375 36.953125 8.078125 
Q 40.578125 10.0625 43.3125 13.921875 
Q 46.09375 17.921875 47.796875 23.234375 
Q 49.515625 28.5625 49.515625 33.40625 
z
M 21.578125 46.390625 
Q 24.90625 50.875 29.90625 53.4375 
Q 34.90625 56 40.375 56 
Q 48.78125 56 53.734375 50.328125 
Q 58.6875 44.671875 58.6875 35.015625 
Q 58.6875 27.09375 55.78125 19.671875 
Q 52.875 12.25 47.515625 6.5 
Q 44 2.6875 39.40625 0.625 
Q 34.8125 -1.421875 29.78125 -1.421875 
Q 24.46875 -1.421875 20.5625 1.015625 
Q 16.65625 3.46875 14.203125 8.296875 
L 12.59375 0 
L 3.609375 0 
L 18.40625 75.984375 
L 27.390625 75.984375 
z
" id="DejaVuSans-Oblique-98"/>
        <path d="M 8.5 54.6875 
L 17.390625 54.6875 
L 19.671875 10.6875 
L 40.09375 54.6875 
L 50.484375 54.6875 
L 53.515625 10.6875 
L 72.90625 54.6875 
L 81.890625 54.6875 
L 56.890625 0 
L 46.390625 0 
L 43.703125 45.3125 
L 22.796875 0 
L 12.203125 0 
z
" id="DejaVuSans-Oblique-119"/>
       </defs>
       <use xlink:href="#DejaVuSans-Oblique-83"/>
       <use x="63.476562" xlink:href="#DejaVuSans-Oblique-46"/>
       <use x="95.263672" xlink:href="#DejaVuSans-Oblique-32"/>
       <use x="127.050781" xlink:href="#DejaVuSans-Oblique-109"/>
       <use x="224.462891" xlink:href="#DejaVuSans-Oblique-97"/>
       <use x="285.742188" xlink:href="#DejaVuSans-Oblique-114"/>
       <use x="326.855469" xlink:href="#DejaVuSans-Oblique-103"/>
       <use x="390.332031" xlink:href="#DejaVuSans-Oblique-114"/>
       <use x="431.445312" xlink:href="#DejaVuSans-Oblique-101"/>
       <use x="492.96875" xlink:href="#DejaVuSans-Oblique-98"/>
       <use x="556.445312" xlink:href="#DejaVuSans-Oblique-111"/>
       <use x="617.626953" xlink:href="#DejaVuSans-Oblique-119"/>
       <use x="699.414062" xlink:href="#DejaVuSans-Oblique-105"/>
       <use x="727.197266" xlink:href="#DejaVuSans-Oblique-101"/>
       <use x="788.720703" xlink:href="#DejaVuSans-Oblique-105"/>
      </g>
     </g>
    </g>
    <g id="xtick_5">
     <g id="line2d_9">
      <path clip-path="url(#pbd6f2c78d1)" d="M 199.350861 513.205937 
L 199.350861 69.685937 
" style="fill:none;stroke:#ffffff;"/>
     </g>
     <g id="line2d_10">
      <path d="M 199.350861 513.205937 
" style="fill:none;stroke:#333333;stroke-width:1.5;"/>
      <g>
       <use style="fill:#333333;stroke:#000000;" x="199.350861" xlink:href="#mecaed9a891" y="513.205937"/>
      </g>
     </g>
     <g id="text_5">
      <!-- S. mansoni -->
      <g style="fill:#4d4d4d;" transform="translate(156.249861 548.302787)rotate(-30)scale(0.088 -0.088)">
       <defs>
        <path d="M 50 53.078125 
L 48.296875 44.578125 
Q 44.734375 46.53125 40.765625 47.5 
Q 36.8125 48.484375 32.625 48.484375 
Q 25.53125 48.484375 21.453125 46.0625 
Q 17.390625 43.65625 17.390625 39.5 
Q 17.390625 34.671875 26.859375 32.078125 
Q 27.59375 31.890625 27.9375 31.78125 
L 30.8125 30.90625 
Q 39.796875 28.421875 42.796875 25.6875 
Q 45.796875 22.953125 45.796875 18.21875 
Q 45.796875 9.515625 38.890625 4.046875 
Q 31.984375 -1.421875 20.796875 -1.421875 
Q 16.453125 -1.421875 11.671875 -0.578125 
Q 6.890625 0.25 1.125 2 
L 2.875 11.28125 
Q 7.8125 8.734375 12.59375 7.421875 
Q 17.390625 6.109375 21.78125 6.109375 
Q 28.375 6.109375 32.5 8.9375 
Q 36.625 11.765625 36.625 16.109375 
Q 36.625 20.796875 25.78125 23.6875 
L 24.859375 23.921875 
L 21.78125 24.703125 
Q 14.9375 26.515625 11.765625 29.46875 
Q 8.59375 32.421875 8.59375 37.015625 
Q 8.59375 45.75 15.15625 50.875 
Q 21.734375 56 33.015625 56 
Q 37.453125 56 41.671875 55.265625 
Q 45.90625 54.546875 50 53.078125 
z
" id="DejaVuSans-Oblique-115"/>
       </defs>
       <use xlink:href="#DejaVuSans-Oblique-83"/>
       <use x="63.476562" xlink:href="#DejaVuSans-Oblique-46"/>
       <use x="95.263672" xlink:href="#DejaVuSans-Oblique-32"/>
       <use x="127.050781" xlink:href="#DejaVuSans-Oblique-109"/>
       <use x="224.462891" xlink:href="#DejaVuSans-Oblique-97"/>
       <use x="285.742188" xlink:href="#DejaVuSans-Oblique-110"/>
       <use x="349.121094" xlink:href="#DejaVuSans-Oblique-115"/>
       <use x="401.220703" xlink:href="#DejaVuSans-Oblique-111"/>
       <use x="462.402344" xlink:href="#DejaVuSans-Oblique-110"/>
       <use x="525.78125" xlink:href="#DejaVuSans-Oblique-105"/>
      </g>
     </g>
    </g>
    <g id="xtick_6">
     <g id="line2d_11">
      <path clip-path="url(#pbd6f2c78d1)" d="M 230.935767 513.205937 
L 230.935767 69.685937 
" style="fill:none;stroke:#ffffff;"/>
     </g>
     <g id="line2d_12">
      <path d="M 230.935767 513.205937 
" style="fill:none;stroke:#333333;stroke-width:1.5;"/>
      <g>
       <use style="fill:#333333;stroke:#000000;" x="230.935767" xlink:href="#mecaed9a891" y="513.205937"/>
      </g>
     </g>
     <g id="text_6">
      <!-- S. japonicum -->
      <g style="fill:#4d4d4d;" transform="translate(180.659097 552.445662)rotate(-30)scale(0.088 -0.088)">
       <defs>
        <path d="M 14.5 54.6875 
L 23.484375 54.6875 
L 12.703125 -0.984375 
L 12.640625 -1.21875 
Q 10.84375 -10.546875 8.5 -14.015625 
Q 6.296875 -17.28125 2.0625 -19.03125 
Q -2.15625 -20.796875 -7.90625 -20.796875 
L -11.28125 -20.796875 
L -9.8125 -13.1875 
L -7.515625 -13.1875 
Q -2.25 -13.1875 -0.015625 -10.984375 
Q 2.203125 -8.796875 3.71875 -0.984375 
z
M 18.703125 75.984375 
L 27.6875 75.984375 
L 25.484375 64.59375 
L 16.5 64.59375 
z
" id="DejaVuSans-Oblique-106"/>
        <path d="M 49.609375 33.6875 
Q 49.609375 40.875 46.484375 44.671875 
Q 43.359375 48.484375 37.5 48.484375 
Q 33.5 48.484375 29.859375 46.4375 
Q 26.21875 44.390625 23.390625 40.484375 
Q 20.609375 36.625 18.9375 31.15625 
Q 17.28125 25.6875 17.28125 20.3125 
Q 17.28125 13.484375 20.40625 9.796875 
Q 23.53125 6.109375 29.296875 6.109375 
Q 33.546875 6.109375 37.1875 8.109375 
Q 40.828125 10.109375 43.40625 13.921875 
Q 46.1875 17.921875 47.890625 23.34375 
Q 49.609375 28.765625 49.609375 33.6875 
z
M 21.78125 46.390625 
Q 25.390625 51.125 30.296875 53.5625 
Q 35.203125 56 41.21875 56 
Q 49.609375 56 54.25 50.5 
Q 58.890625 45.015625 58.890625 35.109375 
Q 58.890625 27 56 19.65625 
Q 53.125 12.3125 47.703125 6.5 
Q 44.09375 2.640625 39.546875 0.609375 
Q 35.015625 -1.421875 29.984375 -1.421875 
Q 24.171875 -1.421875 20.21875 1 
Q 16.265625 3.421875 14.3125 8.203125 
L 8.6875 -20.796875 
L -0.296875 -20.796875 
L 14.40625 54.6875 
L 23.390625 54.6875 
z
" id="DejaVuSans-Oblique-112"/>
        <path d="M 53.609375 52.59375 
L 51.8125 43.703125 
Q 48.578125 46.046875 44.9375 47.21875 
Q 41.3125 48.390625 37.40625 48.390625 
Q 33.109375 48.390625 29.21875 46.875 
Q 25.34375 45.359375 22.703125 42.578125 
Q 18.5 38.328125 16.203125 32.609375 
Q 13.921875 26.90625 13.921875 20.796875 
Q 13.921875 13.421875 17.609375 9.8125 
Q 21.296875 6.203125 28.8125 6.203125 
Q 32.515625 6.203125 36.6875 7.328125 
Q 40.875 8.453125 45.40625 10.6875 
L 43.703125 1.8125 
Q 39.796875 0.203125 35.671875 -0.609375 
Q 31.546875 -1.421875 27.203125 -1.421875 
Q 16.3125 -1.421875 10.453125 4.015625 
Q 4.59375 9.46875 4.59375 19.578125 
Q 4.59375 28.078125 7.640625 35.234375 
Q 10.6875 42.390625 16.703125 48.09375 
Q 20.796875 52 26.3125 54 
Q 31.84375 56 38.375 56 
Q 42.1875 56 45.9375 55.140625 
Q 49.703125 54.296875 53.609375 52.59375 
z
" id="DejaVuSans-Oblique-99"/>
        <path d="M 6.6875 21.6875 
L 13.09375 54.6875 
L 22.125 54.6875 
L 15.71875 22.015625 
Q 15.234375 19.625 15.015625 17.921875 
Q 14.796875 16.21875 14.796875 15.09375 
Q 14.796875 10.9375 17.328125 8.65625 
Q 19.875 6.390625 24.515625 6.390625 
Q 31.734375 6.390625 37 11.265625 
Q 42.28125 16.15625 43.890625 24.421875 
L 49.90625 54.6875 
L 58.890625 54.6875 
L 48.296875 0 
L 39.3125 0 
L 41.109375 8.59375 
Q 37.3125 3.8125 32.0625 1.1875 
Q 26.8125 -1.421875 20.90625 -1.421875 
Q 13.71875 -1.421875 9.71875 2.515625 
Q 5.71875 6.453125 5.71875 13.484375 
Q 5.71875 14.9375 5.953125 17.140625 
Q 6.203125 19.34375 6.6875 21.6875 
z
" id="DejaVuSans-Oblique-117"/>
       </defs>
       <use xlink:href="#DejaVuSans-Oblique-83"/>
       <use x="63.476562" xlink:href="#DejaVuSans-Oblique-46"/>
       <use x="95.263672" xlink:href="#DejaVuSans-Oblique-32"/>
       <use x="127.050781" xlink:href="#DejaVuSans-Oblique-106"/>
       <use x="154.833984" xlink:href="#DejaVuSans-Oblique-97"/>
       <use x="216.113281" xlink:href="#DejaVuSans-Oblique-112"/>
       <use x="279.589844" xlink:href="#DejaVuSans-Oblique-111"/>
       <use x="340.771484" xlink:href="#DejaVuSans-Oblique-110"/>
       <use x="404.150391" xlink:href="#DejaVuSans-Oblique-105"/>
       <use x="431.933594" xlink:href="#DejaVuSans-Oblique-99"/>
       <use x="486.914062" xlink:href="#DejaVuSans-Oblique-117"/>
       <use x="550.292969" xlink:href="#DejaVuSans-Oblique-109"/>
      </g>
     </g>
    </g>
    <g id="xtick_7">
     <g id="line2d_13">
      <path clip-path="url(#pbd6f2c78d1)" d="M 262.520673 513.205937 
L 262.520673 69.685937 
" style="fill:none;stroke:#ffffff;"/>
     </g>
     <g id="line2d_14">
      <path d="M 262.520673 513.205937 
" style="fill:none;stroke:#333333;stroke-width:1.5;"/>
      <g>
       <use style="fill:#333333;stroke:#000000;" x="262.520673" xlink:href="#mecaed9a891" y="513.205937"/>
      </g>
     </g>
     <g id="text_7">
      <!-- S. haematobium -->
      <g style="fill:#4d4d4d;" transform="translate(198.780988 560.218537)rotate(-30)scale(0.088 -0.088)">
       <use xlink:href="#DejaVuSans-Oblique-83"/>
       <use x="63.476562" xlink:href="#DejaVuSans-Oblique-46"/>
       <use x="95.263672" xlink:href="#DejaVuSans-Oblique-32"/>
       <use x="127.050781" xlink:href="#DejaVuSans-Oblique-104"/>
       <use x="190.429688" xlink:href="#DejaVuSans-Oblique-97"/>
       <use x="251.708984" xlink:href="#DejaVuSans-Oblique-101"/>
       <use x="313.232422" xlink:href="#DejaVuSans-Oblique-109"/>
       <use x="410.644531" xlink:href="#DejaVuSans-Oblique-97"/>
       <use x="471.923828" xlink:href="#DejaVuSans-Oblique-116"/>
       <use x="511.132812" xlink:href="#DejaVuSans-Oblique-111"/>
       <use x="572.314453" xlink:href="#DejaVuSans-Oblique-98"/>
       <use x="635.791016" xlink:href="#DejaVuSans-Oblique-105"/>
       <use x="663.574219" xlink:href="#DejaVuSans-Oblique-117"/>
       <use x="726.953125" xlink:href="#DejaVuSans-Oblique-109"/>
      </g>
     </g>
    </g>
    <g id="xtick_8">
     <g id="line2d_15">
      <path clip-path="url(#pbd6f2c78d1)" d="M 294.105578 513.205937 
L 294.105578 69.685937 
" style="fill:none;stroke:#ffffff;"/>
     </g>
     <g id="line2d_16">
      <path d="M 294.105578 513.205937 
" style="fill:none;stroke:#333333;stroke-width:1.5;"/>
      <g>
       <use style="fill:#333333;stroke:#000000;" x="294.105578" xlink:href="#mecaed9a891" y="513.205937"/>
      </g>
     </g>
     <g id="text_8">
      <!-- S. curassoni -->
      <g style="fill:#4d4d4d;" transform="translate(247.134527 550.537162)rotate(-30)scale(0.088 -0.088)">
       <use xlink:href="#DejaVuSans-Oblique-83"/>
       <use x="63.476562" xlink:href="#DejaVuSans-Oblique-46"/>
       <use x="95.263672" xlink:href="#DejaVuSans-Oblique-32"/>
       <use x="127.050781" xlink:href="#DejaVuSans-Oblique-99"/>
       <use x="182.03125" xlink:href="#DejaVuSans-Oblique-117"/>
       <use x="245.410156" xlink:href="#DejaVuSans-Oblique-114"/>
       <use x="286.523438" xlink:href="#DejaVuSans-Oblique-97"/>
       <use x="347.802734" xlink:href="#DejaVuSans-Oblique-115"/>
       <use x="399.902344" xlink:href="#DejaVuSans-Oblique-115"/>
       <use x="452.001953" xlink:href="#DejaVuSans-Oblique-111"/>
       <use x="513.183594" xlink:href="#DejaVuSans-Oblique-110"/>
       <use x="576.5625" xlink:href="#DejaVuSans-Oblique-105"/>
      </g>
     </g>
    </g>
    <g id="xtick_9">
     <g id="line2d_17">
      <path clip-path="url(#pbd6f2c78d1)" d="M 325.690484 513.205937 
L 325.690484 69.685937 
" style="fill:none;stroke:#ffffff;"/>
     </g>
     <g id="line2d_18">
      <path d="M 325.690484 513.205937 
" style="fill:none;stroke:#333333;stroke-width:1.5;"/>
      <g>
       <use style="fill:#333333;stroke:#000000;" x="325.690484" xlink:href="#mecaed9a891" y="513.205937"/>
      </g>
     </g>
     <g id="text_9">
      <!-- T. regenti -->
      <g style="fill:#4d4d4d;" transform="translate(288.897072 544.6611)rotate(-30)scale(0.088 -0.088)">
       <defs>
        <path d="M 5.90625 72.90625 
L 67.578125 72.90625 
L 66.015625 64.59375 
L 39.984375 64.59375 
L 27.484375 0 
L 17.578125 0 
L 30.078125 64.59375 
L 4.296875 64.59375 
z
" id="DejaVuSans-Oblique-84"/>
       </defs>
       <use xlink:href="#DejaVuSans-Oblique-84"/>
       <use x="49.208984" xlink:href="#DejaVuSans-Oblique-46"/>
       <use x="80.996094" xlink:href="#DejaVuSans-Oblique-32"/>
       <use x="112.783203" xlink:href="#DejaVuSans-Oblique-114"/>
       <use x="153.896484" xlink:href="#DejaVuSans-Oblique-101"/>
       <use x="215.419922" xlink:href="#DejaVuSans-Oblique-103"/>
       <use x="278.896484" xlink:href="#DejaVuSans-Oblique-101"/>
       <use x="340.419922" xlink:href="#DejaVuSans-Oblique-110"/>
       <use x="403.798828" xlink:href="#DejaVuSans-Oblique-116"/>
       <use x="443.007812" xlink:href="#DejaVuSans-Oblique-105"/>
      </g>
     </g>
    </g>
    <g id="xtick_10">
     <g id="line2d_19">
      <path clip-path="url(#pbd6f2c78d1)" d="M 357.27539 513.205937 
L 357.27539 69.685937 
" style="fill:none;stroke:#ffffff;"/>
     </g>
     <g id="line2d_20">
      <path d="M 357.27539 513.205937 
" style="fill:none;stroke:#333333;stroke-width:1.5;"/>
      <g>
       <use style="fill:#333333;stroke:#000000;" x="357.27539" xlink:href="#mecaed9a891" y="513.205937"/>
      </g>
     </g>
     <g id="text_10">
      <!-- F. hepatica -->
      <g style="fill:#4d4d4d;" transform="translate(315.121064 547.756225)rotate(-30)scale(0.088 -0.088)">
       <defs>
        <path d="M 16.890625 72.90625 
L 58.6875 72.90625 
L 57.078125 64.59375 
L 25.09375 64.59375 
L 20.90625 43.109375 
L 49.8125 43.109375 
L 48.1875 34.8125 
L 19.28125 34.8125 
L 12.5 0 
L 2.6875 0 
z
" id="DejaVuSans-Oblique-70"/>
       </defs>
       <use xlink:href="#DejaVuSans-Oblique-70"/>
       <use x="44.644531" xlink:href="#DejaVuSans-Oblique-46"/>
       <use x="76.431641" xlink:href="#DejaVuSans-Oblique-32"/>
       <use x="108.21875" xlink:href="#DejaVuSans-Oblique-104"/>
       <use x="171.597656" xlink:href="#DejaVuSans-Oblique-101"/>
       <use x="233.121094" xlink:href="#DejaVuSans-Oblique-112"/>
       <use x="296.597656" xlink:href="#DejaVuSans-Oblique-97"/>
       <use x="357.876953" xlink:href="#DejaVuSans-Oblique-116"/>
       <use x="397.085938" xlink:href="#DejaVuSans-Oblique-105"/>
       <use x="424.869141" xlink:href="#DejaVuSans-Oblique-99"/>
       <use x="479.849609" xlink:href="#DejaVuSans-Oblique-97"/>
      </g>
     </g>
    </g>
    <g id="xtick_11">
     <g id="line2d_21">
      <path clip-path="url(#pbd6f2c78d1)" d="M 388.860295 513.205937 
L 388.860295 69.685937 
" style="fill:none;stroke:#ffffff;"/>
     </g>
     <g id="line2d_22">
      <path d="M 388.860295 513.205937 
" style="fill:none;stroke:#333333;stroke-width:1.5;"/>
      <g>
       <use style="fill:#333333;stroke:#000000;" x="388.860295" xlink:href="#mecaed9a891" y="513.205937"/>
      </g>
     </g>
     <g id="text_11">
      <!-- O. viverrini -->
      <g style="fill:#4d4d4d;" transform="translate(346.248708 548.020225)rotate(-30)scale(0.088 -0.088)">
       <defs>
        <path d="M 45.609375 66.21875 
Q 37.5 66.21875 31.296875 62.28125 
Q 25.09375 58.34375 20.515625 50.296875 
Q 17.578125 45.171875 16.03125 39.40625 
Q 14.5 33.640625 14.5 27.78125 
Q 14.5 17.625 19.359375 12.109375 
Q 24.21875 6.59375 33.109375 6.59375 
Q 41.109375 6.59375 47.375 10.5625 
Q 53.65625 14.546875 58.109375 22.40625 
Q 61.078125 27.6875 62.640625 33.46875 
Q 64.203125 39.265625 64.203125 45.015625 
Q 64.203125 55.125 59.3125 60.671875 
Q 54.4375 66.21875 45.609375 66.21875 
z
M 32.8125 -1.421875 
Q 19.390625 -1.421875 11.6875 6.53125 
Q 4 14.5 4 28.328125 
Q 4 36.234375 7 44.484375 
Q 10.015625 52.734375 15.28125 59.1875 
Q 21.484375 66.75 29.09375 70.484375 
Q 36.71875 74.21875 45.90625 74.21875 
Q 59.28125 74.21875 66.984375 66.328125 
Q 74.703125 58.453125 74.703125 44.828125 
Q 74.703125 36.421875 71.765625 28.3125 
Q 68.84375 20.21875 63.375 13.625 
Q 57.125 6 49.578125 2.28125 
Q 42.046875 -1.421875 32.8125 -1.421875 
z
" id="DejaVuSans-Oblique-79"/>
        <path d="M 7.171875 54.6875 
L 16.703125 54.6875 
L 24.703125 8.203125 
L 50.875 54.6875 
L 60.40625 54.6875 
L 29.296875 0 
L 17.1875 0 
z
" id="DejaVuSans-Oblique-118"/>
       </defs>
       <use xlink:href="#DejaVuSans-Oblique-79"/>
       <use x="74.710938" xlink:href="#DejaVuSans-Oblique-46"/>
       <use x="106.498047" xlink:href="#DejaVuSans-Oblique-32"/>
       <use x="138.285156" xlink:href="#DejaVuSans-Oblique-118"/>
       <use x="197.464844" xlink:href="#DejaVuSans-Oblique-105"/>
       <use x="225.248047" xlink:href="#DejaVuSans-Oblique-118"/>
       <use x="284.427734" xlink:href="#DejaVuSans-Oblique-101"/>
       <use x="345.951172" xlink:href="#DejaVuSans-Oblique-114"/>
       <use x="387.064453" xlink:href="#DejaVuSans-Oblique-114"/>
       <use x="428.177734" xlink:href="#DejaVuSans-Oblique-105"/>
       <use x="455.960938" xlink:href="#DejaVuSans-Oblique-110"/>
       <use x="519.339844" xlink:href="#DejaVuSans-Oblique-105"/>
      </g>
     </g>
    </g>
    <g id="xtick_12">
     <g id="line2d_23">
      <path clip-path="url(#pbd6f2c78d1)" d="M 420.445201 513.205937 
L 420.445201 69.685937 
" style="fill:none;stroke:#ffffff;"/>
     </g>
     <g id="line2d_24">
      <path d="M 420.445201 513.205937 
" style="fill:none;stroke:#333333;stroke-width:1.5;"/>
      <g>
       <use style="fill:#333333;stroke:#000000;" x="420.445201" xlink:href="#mecaed9a891" y="513.205937"/>
      </g>
     </g>
     <g id="text_12">
      <!-- C. sinensis -->
      <g style="fill:#4d4d4d;" transform="translate(378.870787 547.421412)rotate(-30)scale(0.088 -0.088)">
       <defs>
        <path d="M 69.484375 67.28125 
L 67.484375 56.890625 
Q 62.796875 61.625 57.546875 63.921875 
Q 52.296875 66.21875 46.1875 66.21875 
Q 37.84375 66.21875 31.515625 62.203125 
Q 25.203125 58.203125 20.609375 50 
Q 17.671875 44.734375 16.125 38.84375 
Q 14.59375 32.953125 14.59375 27 
Q 14.59375 17.046875 19.75 11.8125 
Q 24.90625 6.59375 34.71875 6.59375 
Q 41.5 6.59375 47.75 8.765625 
Q 54 10.9375 59.90625 15.28125 
L 57.625 3.609375 
Q 51.8125 1.125 45.875 -0.140625 
Q 39.9375 -1.421875 33.984375 -1.421875 
Q 19.96875 -1.421875 12.078125 6.1875 
Q 4.203125 13.8125 4.203125 27.390625 
Q 4.203125 36.078125 7.203125 44.46875 
Q 10.203125 52.875 15.828125 59.8125 
Q 21.78125 67.1875 29.421875 70.703125 
Q 37.0625 74.21875 47.21875 74.21875 
Q 53.46875 74.21875 59.0625 72.484375 
Q 64.65625 70.75 69.484375 67.28125 
z
" id="DejaVuSans-Oblique-67"/>
       </defs>
       <use xlink:href="#DejaVuSans-Oblique-67"/>
       <use x="69.824219" xlink:href="#DejaVuSans-Oblique-46"/>
       <use x="101.611328" xlink:href="#DejaVuSans-Oblique-32"/>
       <use x="133.398438" xlink:href="#DejaVuSans-Oblique-115"/>
       <use x="185.498047" xlink:href="#DejaVuSans-Oblique-105"/>
       <use x="213.28125" xlink:href="#DejaVuSans-Oblique-110"/>
       <use x="276.660156" xlink:href="#DejaVuSans-Oblique-101"/>
       <use x="338.183594" xlink:href="#DejaVuSans-Oblique-110"/>
       <use x="401.5625" xlink:href="#DejaVuSans-Oblique-115"/>
       <use x="453.662109" xlink:href="#DejaVuSans-Oblique-105"/>
       <use x="481.445312" xlink:href="#DejaVuSans-Oblique-115"/>
      </g>
     </g>
    </g>
    <g id="xtick_13">
     <g id="line2d_25">
      <path clip-path="url(#pbd6f2c78d1)" d="M 452.030107 513.205937 
L 452.030107 69.685937 
" style="fill:none;stroke:#ffffff;"/>
     </g>
     <g id="line2d_26">
      <path d="M 452.030107 513.205937 
" style="fill:none;stroke:#333333;stroke-width:1.5;"/>
      <g>
       <use style="fill:#333333;stroke:#000000;" x="452.030107" xlink:href="#mecaed9a891" y="513.205937"/>
      </g>
     </g>
     <g id="text_13">
      <!-- T. saginata -->
      <g style="fill:#4d4d4d;" transform="translate(409.767419 547.818787)rotate(-30)scale(0.088 -0.088)">
       <use xlink:href="#DejaVuSans-Oblique-84"/>
       <use x="49.208984" xlink:href="#DejaVuSans-Oblique-46"/>
       <use x="80.996094" xlink:href="#DejaVuSans-Oblique-32"/>
       <use x="112.783203" xlink:href="#DejaVuSans-Oblique-115"/>
       <use x="164.882812" xlink:href="#DejaVuSans-Oblique-97"/>
       <use x="226.162109" xlink:href="#DejaVuSans-Oblique-103"/>
       <use x="289.638672" xlink:href="#DejaVuSans-Oblique-105"/>
       <use x="317.421875" xlink:href="#DejaVuSans-Oblique-110"/>
       <use x="380.800781" xlink:href="#DejaVuSans-Oblique-97"/>
       <use x="442.080078" xlink:href="#DejaVuSans-Oblique-116"/>
       <use x="481.289062" xlink:href="#DejaVuSans-Oblique-97"/>
      </g>
     </g>
    </g>
    <g id="xtick_14">
     <g id="line2d_27">
      <path clip-path="url(#pbd6f2c78d1)" d="M 483.615012 513.205937 
L 483.615012 69.685937 
" style="fill:none;stroke:#ffffff;"/>
     </g>
     <g id="line2d_28">
      <path d="M 483.615012 513.205937 
" style="fill:none;stroke:#333333;stroke-width:1.5;"/>
      <g>
       <use style="fill:#333333;stroke:#000000;" x="483.615012" xlink:href="#mecaed9a891" y="513.205937"/>
      </g>
     </g>
     <g id="text_14">
      <!-- T. asiatica -->
      <g style="fill:#4d4d4d;" transform="translate(444.71272 545.878662)rotate(-30)scale(0.088 -0.088)">
       <use xlink:href="#DejaVuSans-Oblique-84"/>
       <use x="49.208984" xlink:href="#DejaVuSans-Oblique-46"/>
       <use x="80.996094" xlink:href="#DejaVuSans-Oblique-32"/>
       <use x="112.783203" xlink:href="#DejaVuSans-Oblique-97"/>
       <use x="174.0625" xlink:href="#DejaVuSans-Oblique-115"/>
       <use x="226.162109" xlink:href="#DejaVuSans-Oblique-105"/>
       <use x="253.945312" xlink:href="#DejaVuSans-Oblique-97"/>
       <use x="315.224609" xlink:href="#DejaVuSans-Oblique-116"/>
       <use x="354.433594" xlink:href="#DejaVuSans-Oblique-105"/>
       <use x="382.216797" xlink:href="#DejaVuSans-Oblique-99"/>
       <use x="437.197266" xlink:href="#DejaVuSans-Oblique-97"/>
      </g>
     </g>
    </g>
    <g id="xtick_15">
     <g id="line2d_29">
      <path clip-path="url(#pbd6f2c78d1)" d="M 515.199918 513.205937 
L 515.199918 69.685937 
" style="fill:none;stroke:#ffffff;"/>
     </g>
     <g id="line2d_30">
      <path d="M 515.199918 513.205937 
" style="fill:none;stroke:#333333;stroke-width:1.5;"/>
      <g>
       <use style="fill:#333333;stroke:#000000;" x="515.199918" xlink:href="#mecaed9a891" y="513.205937"/>
      </g>
     </g>
     <g id="text_15">
      <!-- T. solium -->
      <g style="fill:#4d4d4d;" transform="translate(480.570162 543.411912)rotate(-30)scale(0.088 -0.088)">
       <use xlink:href="#DejaVuSans-Oblique-84"/>
       <use x="49.208984" xlink:href="#DejaVuSans-Oblique-46"/>
       <use x="80.996094" xlink:href="#DejaVuSans-Oblique-32"/>
       <use x="112.783203" xlink:href="#DejaVuSans-Oblique-115"/>
       <use x="164.882812" xlink:href="#DejaVuSans-Oblique-111"/>
       <use x="226.064453" xlink:href="#DejaVuSans-Oblique-108"/>
       <use x="253.847656" xlink:href="#DejaVuSans-Oblique-105"/>
       <use x="281.630859" xlink:href="#DejaVuSans-Oblique-117"/>
       <use x="345.009766" xlink:href="#DejaVuSans-Oblique-109"/>
      </g>
     </g>
    </g>
    <g id="xtick_16">
     <g id="line2d_31">
      <path clip-path="url(#pbd6f2c78d1)" d="M 546.784824 513.205937 
L 546.784824 69.685937 
" style="fill:none;stroke:#ffffff;"/>
     </g>
     <g id="line2d_32">
      <path d="M 546.784824 513.205937 
" style="fill:none;stroke:#333333;stroke-width:1.5;"/>
      <g>
       <use style="fill:#333333;stroke:#000000;" x="546.784824" xlink:href="#mecaed9a891" y="513.205937"/>
      </g>
     </g>
     <g id="text_16">
      <!-- E. canadensis -->
      <g style="fill:#4d4d4d;" transform="translate(493.434738 554.2201)rotate(-30)scale(0.088 -0.088)">
       <defs>
        <path d="M 16.890625 72.90625 
L 62.984375 72.90625 
L 61.375 64.59375 
L 25.09375 64.59375 
L 20.90625 43.015625 
L 55.71875 43.015625 
L 54.109375 34.71875 
L 19.28125 34.71875 
L 14.203125 8.296875 
L 51.3125 8.296875 
L 49.703125 0 
L 2.6875 0 
z
" id="DejaVuSans-Oblique-69"/>
       </defs>
       <use xlink:href="#DejaVuSans-Oblique-69"/>
       <use x="63.183594" xlink:href="#DejaVuSans-Oblique-46"/>
       <use x="94.970703" xlink:href="#DejaVuSans-Oblique-32"/>
       <use x="126.757812" xlink:href="#DejaVuSans-Oblique-99"/>
       <use x="181.738281" xlink:href="#DejaVuSans-Oblique-97"/>
       <use x="243.017578" xlink:href="#DejaVuSans-Oblique-110"/>
       <use x="306.396484" xlink:href="#DejaVuSans-Oblique-97"/>
       <use x="367.675781" xlink:href="#DejaVuSans-Oblique-100"/>
       <use x="431.152344" xlink:href="#DejaVuSans-Oblique-101"/>
       <use x="492.675781" xlink:href="#DejaVuSans-Oblique-110"/>
       <use x="556.054688" xlink:href="#DejaVuSans-Oblique-115"/>
       <use x="608.154297" xlink:href="#DejaVuSans-Oblique-105"/>
       <use x="635.9375" xlink:href="#DejaVuSans-Oblique-115"/>
      </g>
     </g>
    </g>
    <g id="xtick_17">
     <g id="line2d_33">
      <path clip-path="url(#pbd6f2c78d1)" d="M 578.369729 513.205937 
L 578.369729 69.685937 
" style="fill:none;stroke:#ffffff;"/>
     </g>
     <g id="line2d_34">
      <path d="M 578.369729 513.205937 
" style="fill:none;stroke:#333333;stroke-width:1.5;"/>
      <g>
       <use style="fill:#333333;stroke:#000000;" x="578.369729" xlink:href="#mecaed9a891" y="513.205937"/>
      </g>
     </g>
     <g id="text_17">
      <!-- E. multilocularis -->
      <g style="fill:#4d4d4d;" transform="translate(516.511485 559.132287)rotate(-30)scale(0.088 -0.088)">
       <use xlink:href="#DejaVuSans-Oblique-69"/>
       <use x="63.183594" xlink:href="#DejaVuSans-Oblique-46"/>
       <use x="94.970703" xlink:href="#DejaVuSans-Oblique-32"/>
       <use x="126.757812" xlink:href="#DejaVuSans-Oblique-109"/>
       <use x="224.169922" xlink:href="#DejaVuSans-Oblique-117"/>
       <use x="287.548828" xlink:href="#DejaVuSans-Oblique-108"/>
       <use x="315.332031" xlink:href="#DejaVuSans-Oblique-116"/>
       <use x="354.541016" xlink:href="#DejaVuSans-Oblique-105"/>
       <use x="382.324219" xlink:href="#DejaVuSans-Oblique-108"/>
       <use x="410.107422" xlink:href="#DejaVuSans-Oblique-111"/>
       <use x="471.289062" xlink:href="#DejaVuSans-Oblique-99"/>
       <use x="526.269531" xlink:href="#DejaVuSans-Oblique-117"/>
       <use x="589.648438" xlink:href="#DejaVuSans-Oblique-108"/>
       <use x="617.431641" xlink:href="#DejaVuSans-Oblique-97"/>
       <use x="678.710938" xlink:href="#DejaVuSans-Oblique-114"/>
       <use x="719.824219" xlink:href="#DejaVuSans-Oblique-105"/>
       <use x="747.607422" xlink:href="#DejaVuSans-Oblique-115"/>
      </g>
     </g>
    </g>
    <g id="xtick_18">
     <g id="line2d_35">
      <path clip-path="url(#pbd6f2c78d1)" d="M 609.954635 513.205937 
L 609.954635 69.685937 
" style="fill:none;stroke:#ffffff;"/>
     </g>
     <g id="line2d_36">
      <path d="M 609.954635 513.205937 
" style="fill:none;stroke:#333333;stroke-width:1.5;"/>
      <g>
       <use style="fill:#333333;stroke:#000000;" x="609.954635" xlink:href="#mecaed9a891" y="513.205937"/>
      </g>
     </g>
     <g id="text_18">
      <!-- E. granulosus -->
      <g style="fill:#4d4d4d;" transform="translate(557.528598 553.6866)rotate(-30)scale(0.088 -0.088)">
       <use xlink:href="#DejaVuSans-Oblique-69"/>
       <use x="63.183594" xlink:href="#DejaVuSans-Oblique-46"/>
       <use x="94.970703" xlink:href="#DejaVuSans-Oblique-32"/>
       <use x="126.757812" xlink:href="#DejaVuSans-Oblique-103"/>
       <use x="190.234375" xlink:href="#DejaVuSans-Oblique-114"/>
       <use x="231.347656" xlink:href="#DejaVuSans-Oblique-97"/>
       <use x="292.626953" xlink:href="#DejaVuSans-Oblique-110"/>
       <use x="356.005859" xlink:href="#DejaVuSans-Oblique-117"/>
       <use x="419.384766" xlink:href="#DejaVuSans-Oblique-108"/>
       <use x="447.167969" xlink:href="#DejaVuSans-Oblique-111"/>
       <use x="508.349609" xlink:href="#DejaVuSans-Oblique-115"/>
       <use x="560.449219" xlink:href="#DejaVuSans-Oblique-117"/>
       <use x="623.828125" xlink:href="#DejaVuSans-Oblique-115"/>
      </g>
     </g>
    </g>
    <g id="xtick_19">
     <g id="line2d_37">
      <path clip-path="url(#pbd6f2c78d1)" d="M 641.539541 513.205937 
L 641.539541 69.685937 
" style="fill:none;stroke:#ffffff;"/>
     </g>
     <g id="line2d_38">
      <path d="M 641.539541 513.205937 
" style="fill:none;stroke:#333333;stroke-width:1.5;"/>
      <g>
       <use style="fill:#333333;stroke:#000000;" x="641.539541" xlink:href="#mecaed9a891" y="513.205937"/>
      </g>
     </g>
     <g id="text_19">
      <!-- M. corti -->
      <g style="fill:#4d4d4d;" transform="translate(612.113515 540.407537)rotate(-30)scale(0.088 -0.088)">
       <use xlink:href="#DejaVuSans-Oblique-77"/>
       <use x="86.279297" xlink:href="#DejaVuSans-Oblique-46"/>
       <use x="118.066406" xlink:href="#DejaVuSans-Oblique-32"/>
       <use x="149.853516" xlink:href="#DejaVuSans-Oblique-99"/>
       <use x="204.833984" xlink:href="#DejaVuSans-Oblique-111"/>
       <use x="266.015625" xlink:href="#DejaVuSans-Oblique-114"/>
       <use x="307.128906" xlink:href="#DejaVuSans-Oblique-116"/>
       <use x="346.337891" xlink:href="#DejaVuSans-Oblique-105"/>
      </g>
     </g>
    </g>
    <g id="xtick_20">
     <g id="line2d_39">
      <path clip-path="url(#pbd6f2c78d1)" d="M 673.124446 513.205937 
L 673.124446 69.685937 
" style="fill:none;stroke:#ffffff;"/>
     </g>
     <g id="line2d_40">
      <path d="M 673.124446 513.205937 
" style="fill:none;stroke:#333333;stroke-width:1.5;"/>
      <g>
       <use style="fill:#333333;stroke:#000000;" x="673.124446" xlink:href="#mecaed9a891" y="513.205937"/>
      </g>
     </g>
     <g id="text_20">
      <!-- H. microstoma -->
      <g style="fill:#4d4d4d;" transform="translate(616.392531 556.1726)rotate(-30)scale(0.088 -0.088)">
       <defs>
        <path d="M 16.890625 72.90625 
L 26.8125 72.90625 
L 21 43.015625 
L 56.78125 43.015625 
L 62.59375 72.90625 
L 72.515625 72.90625 
L 58.296875 0 
L 48.390625 0 
L 55.171875 34.71875 
L 19.390625 34.71875 
L 12.59375 0 
L 2.6875 0 
z
" id="DejaVuSans-Oblique-72"/>
       </defs>
       <use xlink:href="#DejaVuSans-Oblique-72"/>
       <use x="75.195312" xlink:href="#DejaVuSans-Oblique-46"/>
       <use x="106.982422" xlink:href="#DejaVuSans-Oblique-32"/>
       <use x="138.769531" xlink:href="#DejaVuSans-Oblique-109"/>
       <use x="236.181641" xlink:href="#DejaVuSans-Oblique-105"/>
       <use x="263.964844" xlink:href="#DejaVuSans-Oblique-99"/>
       <use x="318.945312" xlink:href="#DejaVuSans-Oblique-114"/>
       <use x="360.058594" xlink:href="#DejaVuSans-Oblique-111"/>
       <use x="421.240234" xlink:href="#DejaVuSans-Oblique-115"/>
       <use x="473.339844" xlink:href="#DejaVuSans-Oblique-116"/>
       <use x="512.548828" xlink:href="#DejaVuSans-Oblique-111"/>
       <use x="573.730469" xlink:href="#DejaVuSans-Oblique-109"/>
       <use x="671.142578" xlink:href="#DejaVuSans-Oblique-97"/>
      </g>
     </g>
    </g>
    <g id="xtick_21">
     <g id="line2d_41">
      <path clip-path="url(#pbd6f2c78d1)" d="M 704.709352 513.205937 
L 704.709352 69.685937 
" style="fill:none;stroke:#ffffff;"/>
     </g>
     <g id="line2d_42">
      <path d="M 704.709352 513.205937 
" style="fill:none;stroke:#333333;stroke-width:1.5;"/>
      <g>
       <use style="fill:#333333;stroke:#000000;" x="704.709352" xlink:href="#mecaed9a891" y="513.205937"/>
      </g>
     </g>
     <g id="text_21">
      <!-- H. diminuta -->
      <g style="fill:#4d4d4d;" transform="translate(659.4054 549.574662)rotate(-30)scale(0.088 -0.088)">
       <use xlink:href="#DejaVuSans-Oblique-72"/>
       <use x="75.195312" xlink:href="#DejaVuSans-Oblique-46"/>
       <use x="106.982422" xlink:href="#DejaVuSans-Oblique-32"/>
       <use x="138.769531" xlink:href="#DejaVuSans-Oblique-100"/>
       <use x="202.246094" xlink:href="#DejaVuSans-Oblique-105"/>
       <use x="230.029297" xlink:href="#DejaVuSans-Oblique-109"/>
       <use x="327.441406" xlink:href="#DejaVuSans-Oblique-105"/>
       <use x="355.224609" xlink:href="#DejaVuSans-Oblique-110"/>
       <use x="418.603516" xlink:href="#DejaVuSans-Oblique-117"/>
       <use x="481.982422" xlink:href="#DejaVuSans-Oblique-116"/>
       <use x="521.191406" xlink:href="#DejaVuSans-Oblique-97"/>
      </g>
     </g>
    </g>
    <g id="text_22">
     <!-- Species -->
     <g transform="translate(356.891311 574.561753)scale(0.11 -0.11)">
      <defs>
       <path d="M 53.515625 70.515625 
L 53.515625 60.890625 
Q 47.90625 63.578125 42.921875 64.890625 
Q 37.9375 66.21875 33.296875 66.21875 
Q 25.25 66.21875 20.875 63.09375 
Q 16.5 59.96875 16.5 54.203125 
Q 16.5 49.359375 19.40625 46.890625 
Q 22.3125 44.4375 30.421875 42.921875 
L 36.375 41.703125 
Q 47.40625 39.59375 52.65625 34.296875 
Q 57.90625 29 57.90625 20.125 
Q 57.90625 9.515625 50.796875 4.046875 
Q 43.703125 -1.421875 29.984375 -1.421875 
Q 24.8125 -1.421875 18.96875 -0.25 
Q 13.140625 0.921875 6.890625 3.21875 
L 6.890625 13.375 
Q 12.890625 10.015625 18.65625 8.296875 
Q 24.421875 6.59375 29.984375 6.59375 
Q 38.421875 6.59375 43.015625 9.90625 
Q 47.609375 13.234375 47.609375 19.390625 
Q 47.609375 24.75 44.3125 27.78125 
Q 41.015625 30.8125 33.5 32.328125 
L 27.484375 33.5 
Q 16.453125 35.6875 11.515625 40.375 
Q 6.59375 45.0625 6.59375 53.421875 
Q 6.59375 63.09375 13.40625 68.65625 
Q 20.21875 74.21875 32.171875 74.21875 
Q 37.3125 74.21875 42.625 73.28125 
Q 47.953125 72.359375 53.515625 70.515625 
z
" id="DejaVuSans-83"/>
       <path d="M 18.109375 8.203125 
L 18.109375 -20.796875 
L 9.078125 -20.796875 
L 9.078125 54.6875 
L 18.109375 54.6875 
L 18.109375 46.390625 
Q 20.953125 51.265625 25.265625 53.625 
Q 29.59375 56 35.59375 56 
Q 45.5625 56 51.78125 48.09375 
Q 58.015625 40.1875 58.015625 27.296875 
Q 58.015625 14.40625 51.78125 6.484375 
Q 45.5625 -1.421875 35.59375 -1.421875 
Q 29.59375 -1.421875 25.265625 0.953125 
Q 20.953125 3.328125 18.109375 8.203125 
z
M 48.6875 27.296875 
Q 48.6875 37.203125 44.609375 42.84375 
Q 40.53125 48.484375 33.40625 48.484375 
Q 26.265625 48.484375 22.1875 42.84375 
Q 18.109375 37.203125 18.109375 27.296875 
Q 18.109375 17.390625 22.1875 11.75 
Q 26.265625 6.109375 33.40625 6.109375 
Q 40.53125 6.109375 44.609375 11.75 
Q 48.6875 17.390625 48.6875 27.296875 
z
" id="DejaVuSans-112"/>
       <path d="M 56.203125 29.59375 
L 56.203125 25.203125 
L 14.890625 25.203125 
Q 15.484375 15.921875 20.484375 11.0625 
Q 25.484375 6.203125 34.421875 6.203125 
Q 39.59375 6.203125 44.453125 7.46875 
Q 49.3125 8.734375 54.109375 11.28125 
L 54.109375 2.78125 
Q 49.265625 0.734375 44.1875 -0.34375 
Q 39.109375 -1.421875 33.890625 -1.421875 
Q 20.796875 -1.421875 13.15625 6.1875 
Q 5.515625 13.8125 5.515625 26.8125 
Q 5.515625 40.234375 12.765625 48.109375 
Q 20.015625 56 32.328125 56 
Q 43.359375 56 49.78125 48.890625 
Q 56.203125 41.796875 56.203125 29.59375 
z
M 47.21875 32.234375 
Q 47.125 39.59375 43.09375 43.984375 
Q 39.0625 48.390625 32.421875 48.390625 
Q 24.90625 48.390625 20.390625 44.140625 
Q 15.875 39.890625 15.1875 32.171875 
z
" id="DejaVuSans-101"/>
       <path d="M 48.78125 52.59375 
L 48.78125 44.1875 
Q 44.96875 46.296875 41.140625 47.34375 
Q 37.3125 48.390625 33.40625 48.390625 
Q 24.65625 48.390625 19.8125 42.84375 
Q 14.984375 37.3125 14.984375 27.296875 
Q 14.984375 17.28125 19.8125 11.734375 
Q 24.65625 6.203125 33.40625 6.203125 
Q 37.3125 6.203125 41.140625 7.25 
Q 44.96875 8.296875 48.78125 10.40625 
L 48.78125 2.09375 
Q 45.015625 0.34375 40.984375 -0.53125 
Q 36.96875 -1.421875 32.421875 -1.421875 
Q 20.0625 -1.421875 12.78125 6.34375 
Q 5.515625 14.109375 5.515625 27.296875 
Q 5.515625 40.671875 12.859375 48.328125 
Q 20.21875 56 33.015625 56 
Q 37.15625 56 41.109375 55.140625 
Q 45.0625 54.296875 48.78125 52.59375 
z
" id="DejaVuSans-99"/>
       <path d="M 9.421875 54.6875 
L 18.40625 54.6875 
L 18.40625 0 
L 9.421875 0 
z
M 9.421875 75.984375 
L 18.40625 75.984375 
L 18.40625 64.59375 
L 9.421875 64.59375 
z
" id="DejaVuSans-105"/>
       <path d="M 44.28125 53.078125 
L 44.28125 44.578125 
Q 40.484375 46.53125 36.375 47.5 
Q 32.28125 48.484375 27.875 48.484375 
Q 21.1875 48.484375 17.84375 46.4375 
Q 14.5 44.390625 14.5 40.28125 
Q 14.5 37.15625 16.890625 35.375 
Q 19.28125 33.59375 26.515625 31.984375 
L 29.59375 31.296875 
Q 39.15625 29.25 43.1875 25.515625 
Q 47.21875 21.78125 47.21875 15.09375 
Q 47.21875 7.46875 41.1875 3.015625 
Q 35.15625 -1.421875 24.609375 -1.421875 
Q 20.21875 -1.421875 15.453125 -0.5625 
Q 10.6875 0.296875 5.421875 2 
L 5.421875 11.28125 
Q 10.40625 8.6875 15.234375 7.390625 
Q 20.0625 6.109375 24.8125 6.109375 
Q 31.15625 6.109375 34.5625 8.28125 
Q 37.984375 10.453125 37.984375 14.40625 
Q 37.984375 18.0625 35.515625 20.015625 
Q 33.0625 21.96875 24.703125 23.78125 
L 21.578125 24.515625 
Q 13.234375 26.265625 9.515625 29.90625 
Q 5.8125 33.546875 5.8125 39.890625 
Q 5.8125 47.609375 11.28125 51.796875 
Q 16.75 56 26.8125 56 
Q 31.78125 56 36.171875 55.265625 
Q 40.578125 54.546875 44.28125 53.078125 
z
" id="DejaVuSans-115"/>
      </defs>
      <use xlink:href="#DejaVuSans-83"/>
      <use x="63.476562" xlink:href="#DejaVuSans-112"/>
      <use x="126.953125" xlink:href="#DejaVuSans-101"/>
      <use x="188.476562" xlink:href="#DejaVuSans-99"/>
      <use x="243.457031" xlink:href="#DejaVuSans-105"/>
      <use x="271.240234" xlink:href="#DejaVuSans-101"/>
      <use x="332.763672" xlink:href="#DejaVuSans-115"/>
     </g>
    </g>
   </g>
   <g id="matplotlib.axis_2">
    <g id="ytick_1">
     <g id="line2d_43">
      <path clip-path="url(#pbd6f2c78d1)" d="M 54.060295 493.045937 
L 723.660295 493.045937 
" style="fill:none;stroke:#ffffff;"/>
     </g>
     <g id="line2d_44">
      <path d="M 54.060295 493.045937 
" style="fill:none;stroke:#333333;stroke-width:1.5;"/>
      <defs>
       <path d="M 0 0 
L -2.75 0 
" id="m9d7d70ec57" style="stroke:#000000;"/>
      </defs>
      <g>
       <use style="fill:#333333;stroke:#000000;" x="54.060295" xlink:href="#m9d7d70ec57" y="493.045937"/>
      </g>
     </g>
     <g id="text_23">
      <!-- 0 -->
      <g style="fill:#4d4d4d;" transform="translate(43.511295 495.474187)scale(0.088 -0.088)">
       <defs>
        <path d="M 31.78125 66.40625 
Q 24.171875 66.40625 20.328125 58.90625 
Q 16.5 51.421875 16.5 36.375 
Q 16.5 21.390625 20.328125 13.890625 
Q 24.171875 6.390625 31.78125 6.390625 
Q 39.453125 6.390625 43.28125 13.890625 
Q 47.125 21.390625 47.125 36.375 
Q 47.125 51.421875 43.28125 58.90625 
Q 39.453125 66.40625 31.78125 66.40625 
z
M 31.78125 74.21875 
Q 44.046875 74.21875 50.515625 64.515625 
Q 56.984375 54.828125 56.984375 36.375 
Q 56.984375 17.96875 50.515625 8.265625 
Q 44.046875 -1.421875 31.78125 -1.421875 
Q 19.53125 -1.421875 13.0625 8.265625 
Q 6.59375 17.96875 6.59375 36.375 
Q 6.59375 54.828125 13.0625 64.515625 
Q 19.53125 74.21875 31.78125 74.21875 
z
" id="DejaVuSans-48"/>
       </defs>
       <use xlink:href="#DejaVuSans-48"/>
      </g>
     </g>
    </g>
    <g id="ytick_2">
     <g id="line2d_45">
      <path clip-path="url(#pbd6f2c78d1)" d="M 54.060295 392.245937 
L 723.660295 392.245937 
" style="fill:none;stroke:#ffffff;"/>
     </g>
     <g id="line2d_46">
      <path d="M 54.060295 392.245937 
" style="fill:none;stroke:#333333;stroke-width:1.5;"/>
      <g>
       <use style="fill:#333333;stroke:#000000;" x="54.060295" xlink:href="#m9d7d70ec57" y="392.245937"/>
      </g>
     </g>
     <g id="text_24">
      <!-- 0.25 -->
      <g style="fill:#4d4d4d;" transform="translate(29.516545 394.674187)scale(0.088 -0.088)">
       <defs>
        <path d="M 10.6875 12.40625 
L 21 12.40625 
L 21 0 
L 10.6875 0 
z
" id="DejaVuSans-46"/>
        <path d="M 19.1875 8.296875 
L 53.609375 8.296875 
L 53.609375 0 
L 7.328125 0 
L 7.328125 8.296875 
Q 12.9375 14.109375 22.625 23.890625 
Q 32.328125 33.6875 34.8125 36.53125 
Q 39.546875 41.84375 41.421875 45.53125 
Q 43.3125 49.21875 43.3125 52.78125 
Q 43.3125 58.59375 39.234375 62.25 
Q 35.15625 65.921875 28.609375 65.921875 
Q 23.96875 65.921875 18.8125 64.3125 
Q 13.671875 62.703125 7.8125 59.421875 
L 7.8125 69.390625 
Q 13.765625 71.78125 18.9375 73 
Q 24.125 74.21875 28.421875 74.21875 
Q 39.75 74.21875 46.484375 68.546875 
Q 53.21875 62.890625 53.21875 53.421875 
Q 53.21875 48.921875 51.53125 44.890625 
Q 49.859375 40.875 45.40625 35.40625 
Q 44.1875 33.984375 37.640625 27.21875 
Q 31.109375 20.453125 19.1875 8.296875 
z
" id="DejaVuSans-50"/>
        <path d="M 10.796875 72.90625 
L 49.515625 72.90625 
L 49.515625 64.59375 
L 19.828125 64.59375 
L 19.828125 46.734375 
Q 21.96875 47.46875 24.109375 47.828125 
Q 26.265625 48.1875 28.421875 48.1875 
Q 40.625 48.1875 47.75 41.5 
Q 54.890625 34.8125 54.890625 23.390625 
Q 54.890625 11.625 47.5625 5.09375 
Q 40.234375 -1.421875 26.90625 -1.421875 
Q 22.3125 -1.421875 17.546875 -0.640625 
Q 12.796875 0.140625 7.71875 1.703125 
L 7.71875 11.625 
Q 12.109375 9.234375 16.796875 8.0625 
Q 21.484375 6.890625 26.703125 6.890625 
Q 35.15625 6.890625 40.078125 11.328125 
Q 45.015625 15.765625 45.015625 23.390625 
Q 45.015625 31 40.078125 35.4375 
Q 35.15625 39.890625 26.703125 39.890625 
Q 22.75 39.890625 18.8125 39.015625 
Q 14.890625 38.140625 10.796875 36.28125 
z
" id="DejaVuSans-53"/>
       </defs>
       <use xlink:href="#DejaVuSans-48"/>
       <use x="63.623047" xlink:href="#DejaVuSans-46"/>
       <use x="95.410156" xlink:href="#DejaVuSans-50"/>
       <use x="159.033203" xlink:href="#DejaVuSans-53"/>
      </g>
     </g>
    </g>
    <g id="ytick_3">
     <g id="line2d_47">
      <path clip-path="url(#pbd6f2c78d1)" d="M 54.060295 291.445937 
L 723.660295 291.445937 
" style="fill:none;stroke:#ffffff;"/>
     </g>
     <g id="line2d_48">
      <path d="M 54.060295 291.445937 
" style="fill:none;stroke:#333333;stroke-width:1.5;"/>
      <g>
       <use style="fill:#333333;stroke:#000000;" x="54.060295" xlink:href="#m9d7d70ec57" y="291.445937"/>
      </g>
     </g>
     <g id="text_25">
      <!-- 0.50 -->
      <g style="fill:#4d4d4d;" transform="translate(29.516545 293.874187)scale(0.088 -0.088)">
       <use xlink:href="#DejaVuSans-48"/>
       <use x="63.623047" xlink:href="#DejaVuSans-46"/>
       <use x="95.410156" xlink:href="#DejaVuSans-53"/>
       <use x="159.033203" xlink:href="#DejaVuSans-48"/>
      </g>
     </g>
    </g>
    <g id="ytick_4">
     <g id="line2d_49">
      <path clip-path="url(#pbd6f2c78d1)" d="M 54.060295 190.645937 
L 723.660295 190.645937 
" style="fill:none;stroke:#ffffff;"/>
     </g>
     <g id="line2d_50">
      <path d="M 54.060295 190.645937 
" style="fill:none;stroke:#333333;stroke-width:1.5;"/>
      <g>
       <use style="fill:#333333;stroke:#000000;" x="54.060295" xlink:href="#m9d7d70ec57" y="190.645937"/>
      </g>
     </g>
     <g id="text_26">
      <!-- 0.75 -->
      <g style="fill:#4d4d4d;" transform="translate(29.516545 193.074187)scale(0.088 -0.088)">
       <defs>
        <path d="M 8.203125 72.90625 
L 55.078125 72.90625 
L 55.078125 68.703125 
L 28.609375 0 
L 18.3125 0 
L 43.21875 64.59375 
L 8.203125 64.59375 
z
" id="DejaVuSans-55"/>
       </defs>
       <use xlink:href="#DejaVuSans-48"/>
       <use x="63.623047" xlink:href="#DejaVuSans-46"/>
       <use x="95.410156" xlink:href="#DejaVuSans-55"/>
       <use x="159.033203" xlink:href="#DejaVuSans-53"/>
      </g>
     </g>
    </g>
    <g id="ytick_5">
     <g id="line2d_51">
      <path clip-path="url(#pbd6f2c78d1)" d="M 54.060295 89.845937 
L 723.660295 89.845937 
" style="fill:none;stroke:#ffffff;"/>
     </g>
     <g id="line2d_52">
      <path d="M 54.060295 89.845937 
" style="fill:none;stroke:#333333;stroke-width:1.5;"/>
      <g>
       <use style="fill:#333333;stroke:#000000;" x="54.060295" xlink:href="#m9d7d70ec57" y="89.845937"/>
      </g>
     </g>
     <g id="text_27">
      <!-- 1 -->
      <g style="fill:#4d4d4d;" transform="translate(43.511295 92.274187)scale(0.088 -0.088)">
       <defs>
        <path d="M 12.40625 8.296875 
L 28.515625 8.296875 
L 28.515625 63.921875 
L 10.984375 60.40625 
L 10.984375 69.390625 
L 28.421875 72.90625 
L 38.28125 72.90625 
L 38.28125 8.296875 
L 54.390625 8.296875 
L 54.390625 0 
L 12.40625 0 
z
" id="DejaVuSans-49"/>
       </defs>
       <use xlink:href="#DejaVuSans-49"/>
      </g>
     </g>
    </g>
    <g id="ytick_6">
     <g id="line2d_53">
      <path clip-path="url(#pbd6f2c78d1)" d="M 54.060295 442.645937 
L 723.660295 442.645937 
" style="fill:none;stroke:#ffffff;stroke-width:0.5;"/>
     </g>
    </g>
    <g id="ytick_7">
     <g id="line2d_54">
      <path clip-path="url(#pbd6f2c78d1)" d="M 54.060295 341.845937 
L 723.660295 341.845937 
" style="fill:none;stroke:#ffffff;stroke-width:0.5;"/>
     </g>
    </g>
    <g id="ytick_8">
     <g id="line2d_55">
      <path clip-path="url(#pbd6f2c78d1)" d="M 54.060295 241.045937 
L 723.660295 241.045937 
" style="fill:none;stroke:#ffffff;stroke-width:0.5;"/>
     </g>
    </g>
    <g id="ytick_9">
     <g id="line2d_56">
      <path clip-path="url(#pbd6f2c78d1)" d="M 54.060295 140.245937 
L 723.660295 140.245937 
" style="fill:none;stroke:#ffffff;stroke-width:0.5;"/>
     </g>
    </g>
    <g id="text_28">
     <!-- Percentage -->
     <g transform="translate(22.828889 319.500859)rotate(-90)scale(0.11 -0.11)">
      <defs>
       <path d="M 19.671875 64.796875 
L 19.671875 37.40625 
L 32.078125 37.40625 
Q 38.96875 37.40625 42.71875 40.96875 
Q 46.484375 44.53125 46.484375 51.125 
Q 46.484375 57.671875 42.71875 61.234375 
Q 38.96875 64.796875 32.078125 64.796875 
z
M 9.8125 72.90625 
L 32.078125 72.90625 
Q 44.34375 72.90625 50.609375 67.359375 
Q 56.890625 61.8125 56.890625 51.125 
Q 56.890625 40.328125 50.609375 34.8125 
Q 44.34375 29.296875 32.078125 29.296875 
L 19.671875 29.296875 
L 19.671875 0 
L 9.8125 0 
z
" id="DejaVuSans-80"/>
       <path d="M 41.109375 46.296875 
Q 39.59375 47.171875 37.8125 47.578125 
Q 36.03125 48 33.890625 48 
Q 26.265625 48 22.1875 43.046875 
Q 18.109375 38.09375 18.109375 28.8125 
L 18.109375 0 
L 9.078125 0 
L 9.078125 54.6875 
L 18.109375 54.6875 
L 18.109375 46.1875 
Q 20.953125 51.171875 25.484375 53.578125 
Q 30.03125 56 36.53125 56 
Q 37.453125 56 38.578125 55.875 
Q 39.703125 55.765625 41.0625 55.515625 
z
" id="DejaVuSans-114"/>
       <path d="M 54.890625 33.015625 
L 54.890625 0 
L 45.90625 0 
L 45.90625 32.71875 
Q 45.90625 40.484375 42.875 44.328125 
Q 39.84375 48.1875 33.796875 48.1875 
Q 26.515625 48.1875 22.3125 43.546875 
Q 18.109375 38.921875 18.109375 30.90625 
L 18.109375 0 
L 9.078125 0 
L 9.078125 54.6875 
L 18.109375 54.6875 
L 18.109375 46.1875 
Q 21.34375 51.125 25.703125 53.5625 
Q 30.078125 56 35.796875 56 
Q 45.21875 56 50.046875 50.171875 
Q 54.890625 44.34375 54.890625 33.015625 
z
" id="DejaVuSans-110"/>
       <path d="M 18.3125 70.21875 
L 18.3125 54.6875 
L 36.8125 54.6875 
L 36.8125 47.703125 
L 18.3125 47.703125 
L 18.3125 18.015625 
Q 18.3125 11.328125 20.140625 9.421875 
Q 21.96875 7.515625 27.59375 7.515625 
L 36.8125 7.515625 
L 36.8125 0 
L 27.59375 0 
Q 17.1875 0 13.234375 3.875 
Q 9.28125 7.765625 9.28125 18.015625 
L 9.28125 47.703125 
L 2.6875 47.703125 
L 2.6875 54.6875 
L 9.28125 54.6875 
L 9.28125 70.21875 
z
" id="DejaVuSans-116"/>
       <path d="M 34.28125 27.484375 
Q 23.390625 27.484375 19.1875 25 
Q 14.984375 22.515625 14.984375 16.5 
Q 14.984375 11.71875 18.140625 8.90625 
Q 21.296875 6.109375 26.703125 6.109375 
Q 34.1875 6.109375 38.703125 11.40625 
Q 43.21875 16.703125 43.21875 25.484375 
L 43.21875 27.484375 
z
M 52.203125 31.203125 
L 52.203125 0 
L 43.21875 0 
L 43.21875 8.296875 
Q 40.140625 3.328125 35.546875 0.953125 
Q 30.953125 -1.421875 24.3125 -1.421875 
Q 15.921875 -1.421875 10.953125 3.296875 
Q 6 8.015625 6 15.921875 
Q 6 25.140625 12.171875 29.828125 
Q 18.359375 34.515625 30.609375 34.515625 
L 43.21875 34.515625 
L 43.21875 35.40625 
Q 43.21875 41.609375 39.140625 45 
Q 35.0625 48.390625 27.6875 48.390625 
Q 23 48.390625 18.546875 47.265625 
Q 14.109375 46.140625 10.015625 43.890625 
L 10.015625 52.203125 
Q 14.9375 54.109375 19.578125 55.046875 
Q 24.21875 56 28.609375 56 
Q 40.484375 56 46.34375 49.84375 
Q 52.203125 43.703125 52.203125 31.203125 
z
" id="DejaVuSans-97"/>
       <path d="M 45.40625 27.984375 
Q 45.40625 37.75 41.375 43.109375 
Q 37.359375 48.484375 30.078125 48.484375 
Q 22.859375 48.484375 18.828125 43.109375 
Q 14.796875 37.75 14.796875 27.984375 
Q 14.796875 18.265625 18.828125 12.890625 
Q 22.859375 7.515625 30.078125 7.515625 
Q 37.359375 7.515625 41.375 12.890625 
Q 45.40625 18.265625 45.40625 27.984375 
z
M 54.390625 6.78125 
Q 54.390625 -7.171875 48.1875 -13.984375 
Q 42 -20.796875 29.203125 -20.796875 
Q 24.46875 -20.796875 20.265625 -20.09375 
Q 16.0625 -19.390625 12.109375 -17.921875 
L 12.109375 -9.1875 
Q 16.0625 -11.328125 19.921875 -12.34375 
Q 23.78125 -13.375 27.78125 -13.375 
Q 36.625 -13.375 41.015625 -8.765625 
Q 45.40625 -4.15625 45.40625 5.171875 
L 45.40625 9.625 
Q 42.625 4.78125 38.28125 2.390625 
Q 33.9375 0 27.875 0 
Q 17.828125 0 11.671875 7.65625 
Q 5.515625 15.328125 5.515625 27.984375 
Q 5.515625 40.671875 11.671875 48.328125 
Q 17.828125 56 27.875 56 
Q 33.9375 56 38.28125 53.609375 
Q 42.625 51.21875 45.40625 46.390625 
L 45.40625 54.6875 
L 54.390625 54.6875 
z
" id="DejaVuSans-103"/>
      </defs>
      <use xlink:href="#DejaVuSans-80"/>
      <use x="56.677734" xlink:href="#DejaVuSans-101"/>
      <use x="118.201172" xlink:href="#DejaVuSans-114"/>
      <use x="157.064453" xlink:href="#DejaVuSans-99"/>
      <use x="212.044922" xlink:href="#DejaVuSans-101"/>
      <use x="273.568359" xlink:href="#DejaVuSans-110"/>
      <use x="336.947266" xlink:href="#DejaVuSans-116"/>
      <use x="376.15625" xlink:href="#DejaVuSans-97"/>
      <use x="437.435547" xlink:href="#DejaVuSans-103"/>
      <use x="500.912109" xlink:href="#DejaVuSans-101"/>
     </g>
    </g>
   </g>
   <g id="PolyCollection_1">
    <path clip-path="url(#pbd6f2c78d1)" d="M 58.798031 493.045937 
L 58.798031 481.919743 
L 87.224446 481.919743 
L 87.224446 493.045937 
z
" style="fill:#fde725;"/>
    <path clip-path="url(#pbd6f2c78d1)" d="M 58.798031 481.919743 
L 58.798031 379.293054 
L 87.224446 379.293054 
L 87.224446 481.919743 
z
" style="fill:#35b779;"/>
    <path clip-path="url(#pbd6f2c78d1)" d="M 58.798031 379.293054 
L 58.798031 90.676251 
L 87.224446 90.676251 
L 87.224446 379.293054 
z
" style="fill:#31688e;"/>
    <path clip-path="url(#pbd6f2c78d1)" d="M 58.798031 90.676251 
L 58.798031 89.845937 
L 87.224446 89.845937 
L 87.224446 90.676251 
z
" style="fill:#440154;"/>
    <path clip-path="url(#pbd6f2c78d1)" d="M 90.382937 493.045937 
L 90.382937 480.04834 
L 118.809352 480.04834 
L 118.809352 493.045937 
z
" style="fill:#fde725;"/>
    <path clip-path="url(#pbd6f2c78d1)" d="M 90.382937 480.04834 
L 90.382937 449.596826 
L 118.809352 449.596826 
L 118.809352 480.04834 
z
" style="fill:#35b779;"/>
    <path clip-path="url(#pbd6f2c78d1)" d="M 90.382937 449.596826 
L 90.382937 89.87823 
L 118.809352 89.87823 
L 118.809352 449.596826 
z
" style="fill:#31688e;"/>
    <path clip-path="url(#pbd6f2c78d1)" d="M 90.382937 89.87823 
L 90.382937 89.845937 
L 118.809352 89.845937 
L 118.809352 89.87823 
z
" style="fill:#440154;"/>
    <path clip-path="url(#pbd6f2c78d1)" d="M 121.967843 493.045937 
L 121.967843 485.888541 
L 150.394258 485.888541 
L 150.394258 493.045937 
z
" style="fill:#fde725;"/>
    <path clip-path="url(#pbd6f2c78d1)" d="M 121.967843 485.888541 
L 121.967843 454.873156 
L 150.394258 454.873156 
L 150.394258 485.888541 
z
" style="fill:#35b779;"/>
    <path clip-path="url(#pbd6f2c78d1)" d="M 121.967843 454.873156 
L 121.967843 89.845937 
L 150.394258 89.845937 
L 150.394258 454.873156 
z
" style="fill:#31688e;"/>
    <path clip-path="url(#pbd6f2c78d1)" d="M 121.967843 89.845937 
L 121.967843 89.845937 
L 150.394258 89.845937 
L 150.394258 89.845937 
z
" style="fill:#440154;"/>
    <path clip-path="url(#pbd6f2c78d1)" d="M 153.552748 493.045937 
L 153.552748 477.009574 
L 181.979163 477.009574 
L 181.979163 493.045937 
z
" style="fill:#fde725;"/>
    <path clip-path="url(#pbd6f2c78d1)" d="M 153.552748 477.009574 
L 153.552748 452.955028 
L 181.979163 452.955028 
L 181.979163 477.009574 
z
" style="fill:#35b779;"/>
    <path clip-path="url(#pbd6f2c78d1)" d="M 153.552748 452.955028 
L 153.552748 89.845937 
L 181.979163 89.845937 
L 181.979163 452.955028 
z
" style="fill:#31688e;"/>
    <path clip-path="url(#pbd6f2c78d1)" d="M 153.552748 89.845937 
L 153.552748 89.845937 
L 181.979163 89.845937 
L 181.979163 89.845937 
z
" style="fill:#440154;"/>
    <path clip-path="url(#pbd6f2c78d1)" d="M 185.137654 493.045937 
L 185.137654 463.477937 
L 213.564069 463.477937 
L 213.564069 493.045937 
z
" style="fill:#fde725;"/>
    <path clip-path="url(#pbd6f2c78d1)" d="M 185.137654 463.477937 
L 185.137654 416.885937 
L 213.564069 416.885937 
L 213.564069 463.477937 
z
" style="fill:#35b779;"/>
    <path clip-path="url(#pbd6f2c78d1)" d="M 185.137654 416.885937 
L 185.137654 89.845937 
L 213.564069 89.845937 
L 213.564069 416.885937 
z
" style="fill:#31688e;"/>
    <path clip-path="url(#pbd6f2c78d1)" d="M 185.137654 89.845937 
L 185.137654 89.845937 
L 213.564069 89.845937 
L 213.564069 89.845937 
z
" style="fill:#440154;"/>
    <path clip-path="url(#pbd6f2c78d1)" d="M 216.72256 493.045937 
L 216.72256 475.294994 
L 245.148975 475.294994 
L 245.148975 493.045937 
z
" style="fill:#fde725;"/>
    <path clip-path="url(#pbd6f2c78d1)" d="M 216.72256 475.294994 
L 216.72256 351.03839 
L 245.148975 351.03839 
L 245.148975 475.294994 
z
" style="fill:#35b779;"/>
    <path clip-path="url(#pbd6f2c78d1)" d="M 216.72256 351.03839 
L 216.72256 89.845937 
L 245.148975 89.845937 
L 245.148975 351.03839 
z
" style="fill:#31688e;"/>
    <path clip-path="url(#pbd6f2c78d1)" d="M 216.72256 89.845937 
L 216.72256 89.845937 
L 245.148975 89.845937 
L 245.148975 89.845937 
z
" style="fill:#440154;"/>
    <path clip-path="url(#pbd6f2c78d1)" d="M 248.307465 493.045937 
L 248.307465 478.848754 
L 276.73388 478.848754 
L 276.73388 493.045937 
z
" style="fill:#fde725;"/>
    <path clip-path="url(#pbd6f2c78d1)" d="M 248.307465 478.848754 
L 248.307465 420.640304 
L 276.73388 420.640304 
L 276.73388 478.848754 
z
" style="fill:#35b779;"/>
    <path clip-path="url(#pbd6f2c78d1)" d="M 248.307465 420.640304 
L 248.307465 89.845937 
L 276.73388 89.845937 
L 276.73388 420.640304 
z
" style="fill:#31688e;"/>
    <path clip-path="url(#pbd6f2c78d1)" d="M 248.307465 89.845937 
L 248.307465 89.845937 
L 276.73388 89.845937 
L 276.73388 89.845937 
z
" style="fill:#440154;"/>
    <path clip-path="url(#pbd6f2c78d1)" d="M 279.892371 493.045937 
L 279.892371 484.567433 
L 308.318786 484.567433 
L 308.318786 493.045937 
z
" style="fill:#fde725;"/>
    <path clip-path="url(#pbd6f2c78d1)" d="M 279.892371 484.567433 
L 279.892371 445.001078 
L 308.318786 445.001078 
L 308.318786 484.567433 
z
" style="fill:#35b779;"/>
    <path clip-path="url(#pbd6f2c78d1)" d="M 279.892371 445.001078 
L 279.892371 91.73005 
L 308.318786 91.73005 
L 308.318786 445.001078 
z
" style="fill:#31688e;"/>
    <path clip-path="url(#pbd6f2c78d1)" d="M 279.892371 91.73005 
L 279.892371 89.845937 
L 308.318786 89.845937 
L 308.318786 91.73005 
z
" style="fill:#440154;"/>
    <path clip-path="url(#pbd6f2c78d1)" d="M 311.477277 493.045937 
L 311.477277 472.050908 
L 339.903692 472.050908 
L 339.903692 493.045937 
z
" style="fill:#fde725;"/>
    <path clip-path="url(#pbd6f2c78d1)" d="M 311.477277 472.050908 
L 311.477277 396.182506 
L 339.903692 396.182506 
L 339.903692 472.050908 
z
" style="fill:#35b779;"/>
    <path clip-path="url(#pbd6f2c78d1)" d="M 311.477277 396.182506 
L 311.477277 91.277417 
L 339.903692 91.277417 
L 339.903692 396.182506 
z
" style="fill:#31688e;"/>
    <path clip-path="url(#pbd6f2c78d1)" d="M 311.477277 91.277417 
L 311.477277 89.845937 
L 339.903692 89.845937 
L 339.903692 91.277417 
z
" style="fill:#440154;"/>
    <path clip-path="url(#pbd6f2c78d1)" d="M 343.062182 493.045937 
L 343.062182 459.131919 
L 371.488597 459.131919 
L 371.488597 493.045937 
z
" style="fill:#fde725;"/>
    <path clip-path="url(#pbd6f2c78d1)" d="M 343.062182 459.131919 
L 343.062182 221.733788 
L 371.488597 221.733788 
L 371.488597 459.131919 
z
" style="fill:#35b779;"/>
    <path clip-path="url(#pbd6f2c78d1)" d="M 343.062182 221.733788 
L 343.062182 89.845937 
L 371.488597 89.845937 
L 371.488597 221.733788 
z
" style="fill:#31688e;"/>
    <path clip-path="url(#pbd6f2c78d1)" d="M 343.062182 89.845937 
L 343.062182 89.845937 
L 371.488597 89.845937 
L 371.488597 89.845937 
z
" style="fill:#440154;"/>
    <path clip-path="url(#pbd6f2c78d1)" d="M 374.647088 493.045937 
L 374.647088 482.049574 
L 403.073503 482.049574 
L 403.073503 493.045937 
z
" style="fill:#fde725;"/>
    <path clip-path="url(#pbd6f2c78d1)" d="M 374.647088 482.049574 
L 374.647088 366.587756 
L 403.073503 366.587756 
L 403.073503 482.049574 
z
" style="fill:#35b779;"/>
    <path clip-path="url(#pbd6f2c78d1)" d="M 374.647088 366.587756 
L 374.647088 89.845937 
L 403.073503 89.845937 
L 403.073503 366.587756 
z
" style="fill:#31688e;"/>
    <path clip-path="url(#pbd6f2c78d1)" d="M 374.647088 89.845937 
L 374.647088 89.845937 
L 403.073503 89.845937 
L 403.073503 89.845937 
z
" style="fill:#440154;"/>
    <path clip-path="url(#pbd6f2c78d1)" d="M 406.231994 493.045937 
L 406.231994 466.045937 
L 434.658409 466.045937 
L 434.658409 493.045937 
z
" style="fill:#fde725;"/>
    <path clip-path="url(#pbd6f2c78d1)" d="M 406.231994 466.045937 
L 406.231994 259.045937 
L 434.658409 259.045937 
L 434.658409 466.045937 
z
" style="fill:#35b779;"/>
    <path clip-path="url(#pbd6f2c78d1)" d="M 406.231994 259.045937 
L 406.231994 89.845937 
L 434.658409 89.845937 
L 434.658409 259.045937 
z
" style="fill:#31688e;"/>
    <path clip-path="url(#pbd6f2c78d1)" d="M 406.231994 89.845937 
L 406.231994 89.845937 
L 434.658409 89.845937 
L 434.658409 89.845937 
z
" style="fill:#440154;"/>
    <path clip-path="url(#pbd6f2c78d1)" d="M 437.816899 493.045937 
L 437.816899 482.365143 
L 466.243314 482.365143 
L 466.243314 493.045937 
z
" style="fill:#fde725;"/>
    <path clip-path="url(#pbd6f2c78d1)" d="M 437.816899 482.365143 
L 437.816899 434.301567 
L 466.243314 434.301567 
L 466.243314 482.365143 
z
" style="fill:#35b779;"/>
    <path clip-path="url(#pbd6f2c78d1)" d="M 437.816899 434.301567 
L 437.816899 89.845937 
L 466.243314 89.845937 
L 466.243314 434.301567 
z
" style="fill:#31688e;"/>
    <path clip-path="url(#pbd6f2c78d1)" d="M 437.816899 89.845937 
L 437.816899 89.845937 
L 466.243314 89.845937 
L 466.243314 89.845937 
z
" style="fill:#440154;"/>
    <path clip-path="url(#pbd6f2c78d1)" d="M 469.401805 493.045937 
L 469.401805 483.536504 
L 497.82822 483.536504 
L 497.82822 493.045937 
z
" style="fill:#fde725;"/>
    <path clip-path="url(#pbd6f2c78d1)" d="M 469.401805 483.536504 
L 469.401805 455.959145 
L 497.82822 455.959145 
L 497.82822 483.536504 
z
" style="fill:#35b779;"/>
    <path clip-path="url(#pbd6f2c78d1)" d="M 469.401805 455.959145 
L 469.401805 89.845937 
L 497.82822 89.845937 
L 497.82822 455.959145 
z
" style="fill:#31688e;"/>
    <path clip-path="url(#pbd6f2c78d1)" d="M 469.401805 89.845937 
L 469.401805 89.845937 
L 497.82822 89.845937 
L 497.82822 89.845937 
z
" style="fill:#440154;"/>
    <path clip-path="url(#pbd6f2c78d1)" d="M 500.986711 493.045937 
L 500.986711 469.32829 
L 529.413126 469.32829 
L 529.413126 493.045937 
z
" style="fill:#fde725;"/>
    <path clip-path="url(#pbd6f2c78d1)" d="M 500.986711 469.32829 
L 500.986711 415.963585 
L 529.413126 415.963585 
L 529.413126 469.32829 
z
" style="fill:#35b779;"/>
    <path clip-path="url(#pbd6f2c78d1)" d="M 500.986711 415.963585 
L 500.986711 89.845937 
L 529.413126 89.845937 
L 529.413126 415.963585 
z
" style="fill:#31688e;"/>
    <path clip-path="url(#pbd6f2c78d1)" d="M 500.986711 89.845937 
L 500.986711 89.845937 
L 529.413126 89.845937 
L 529.413126 89.845937 
z
" style="fill:#440154;"/>
    <path clip-path="url(#pbd6f2c78d1)" d="M 532.571616 493.045937 
L 532.571616 484.872965 
L 560.998031 484.872965 
L 560.998031 493.045937 
z
" style="fill:#fde725;"/>
    <path clip-path="url(#pbd6f2c78d1)" d="M 532.571616 484.872965 
L 532.571616 444.0081 
L 560.998031 444.0081 
L 560.998031 484.872965 
z
" style="fill:#35b779;"/>
    <path clip-path="url(#pbd6f2c78d1)" d="M 532.571616 444.0081 
L 532.571616 89.845937 
L 560.998031 89.845937 
L 560.998031 444.0081 
z
" style="fill:#31688e;"/>
    <path clip-path="url(#pbd6f2c78d1)" d="M 532.571616 89.845937 
L 532.571616 89.845937 
L 560.998031 89.845937 
L 560.998031 89.845937 
z
" style="fill:#440154;"/>
    <path clip-path="url(#pbd6f2c78d1)" d="M 564.156522 493.045937 
L 564.156522 480.177852 
L 592.582937 480.177852 
L 592.582937 493.045937 
z
" style="fill:#fde725;"/>
    <path clip-path="url(#pbd6f2c78d1)" d="M 564.156522 480.177852 
L 564.156522 435.139555 
L 592.582937 435.139555 
L 592.582937 480.177852 
z
" style="fill:#35b779;"/>
    <path clip-path="url(#pbd6f2c78d1)" d="M 564.156522 435.139555 
L 564.156522 89.845937 
L 592.582937 89.845937 
L 592.582937 435.139555 
z
" style="fill:#31688e;"/>
    <path clip-path="url(#pbd6f2c78d1)" d="M 564.156522 89.845937 
L 564.156522 89.845937 
L 592.582937 89.845937 
L 592.582937 89.845937 
z
" style="fill:#440154;"/>
    <path clip-path="url(#pbd6f2c78d1)" d="M 595.741428 493.045937 
L 595.741428 471.664119 
L 624.167843 471.664119 
L 624.167843 493.045937 
z
" style="fill:#fde725;"/>
    <path clip-path="url(#pbd6f2c78d1)" d="M 595.741428 471.664119 
L 595.741428 401.409574 
L 624.167843 401.409574 
L 624.167843 471.664119 
z
" style="fill:#35b779;"/>
    <path clip-path="url(#pbd6f2c78d1)" d="M 595.741428 401.409574 
L 595.741428 89.845937 
L 624.167843 89.845937 
L 624.167843 401.409574 
z
" style="fill:#31688e;"/>
    <path clip-path="url(#pbd6f2c78d1)" d="M 595.741428 89.845937 
L 595.741428 89.845937 
L 624.167843 89.845937 
L 624.167843 89.845937 
z
" style="fill:#440154;"/>
    <path clip-path="url(#pbd6f2c78d1)" d="M 627.326333 493.045937 
L 627.326333 469.836908 
L 655.752748 469.836908 
L 655.752748 493.045937 
z
" style="fill:#fde725;"/>
    <path clip-path="url(#pbd6f2c78d1)" d="M 627.326333 469.836908 
L 627.326333 321.481152 
L 655.752748 321.481152 
L 655.752748 469.836908 
z
" style="fill:#35b779;"/>
    <path clip-path="url(#pbd6f2c78d1)" d="M 627.326333 321.481152 
L 627.326333 92.576412 
L 655.752748 92.576412 
L 655.752748 321.481152 
z
" style="fill:#31688e;"/>
    <path clip-path="url(#pbd6f2c78d1)" d="M 627.326333 92.576412 
L 627.326333 89.845937 
L 655.752748 89.845937 
L 655.752748 92.576412 
z
" style="fill:#440154;"/>
    <path clip-path="url(#pbd6f2c78d1)" d="M 658.911239 493.045937 
L 658.911239 478.759323 
L 687.337654 478.759323 
L 687.337654 493.045937 
z
" style="fill:#fde725;"/>
    <path clip-path="url(#pbd6f2c78d1)" d="M 658.911239 478.759323 
L 658.911239 436.957749 
L 687.337654 436.957749 
L 687.337654 478.759323 
z
" style="fill:#35b779;"/>
    <path clip-path="url(#pbd6f2c78d1)" d="M 658.911239 436.957749 
L 658.911239 89.845937 
L 687.337654 89.845937 
L 687.337654 436.957749 
z
" style="fill:#31688e;"/>
    <path clip-path="url(#pbd6f2c78d1)" d="M 658.911239 89.845937 
L 658.911239 89.845937 
L 687.337654 89.845937 
L 687.337654 89.845937 
z
" style="fill:#440154;"/>
    <path clip-path="url(#pbd6f2c78d1)" d="M 690.496144 493.045937 
L 690.496144 477.847075 
L 718.92256 477.847075 
L 718.92256 493.045937 
z
" style="fill:#fde725;"/>
    <path clip-path="url(#pbd6f2c78d1)" d="M 690.496144 477.847075 
L 690.496144 379.484629 
L 718.92256 379.484629 
L 718.92256 477.847075 
z
" style="fill:#35b779;"/>
    <path clip-path="url(#pbd6f2c78d1)" d="M 690.496144 379.484629 
L 690.496144 90.419479 
L 718.92256 90.419479 
L 718.92256 379.484629 
z
" style="fill:#31688e;"/>
    <path clip-path="url(#pbd6f2c78d1)" d="M 690.496144 90.419479 
L 690.496144 89.845937 
L 718.92256 89.845937 
L 718.92256 90.419479 
z
" style="fill:#440154;"/>
   </g>
   <g id="patch_3">
    <path d="M 235.887483 62.485937 
L 520.233108 62.485937 
L 520.233108 7.2 
L 235.887483 7.2 
z
" style="fill:#ffffff;"/>
   </g>
   <g id="text_29">
    <!-- Category -->
    <g transform="translate(248.087483 30.793594)scale(0.11 -0.11)">
     <defs>
      <path d="M 64.40625 67.28125 
L 64.40625 56.890625 
Q 59.421875 61.53125 53.78125 63.8125 
Q 48.140625 66.109375 41.796875 66.109375 
Q 29.296875 66.109375 22.65625 58.46875 
Q 16.015625 50.828125 16.015625 36.375 
Q 16.015625 21.96875 22.65625 14.328125 
Q 29.296875 6.6875 41.796875 6.6875 
Q 48.140625 6.6875 53.78125 8.984375 
Q 59.421875 11.28125 64.40625 15.921875 
L 64.40625 5.609375 
Q 59.234375 2.09375 53.4375 0.328125 
Q 47.65625 -1.421875 41.21875 -1.421875 
Q 24.65625 -1.421875 15.125 8.703125 
Q 5.609375 18.84375 5.609375 36.375 
Q 5.609375 53.953125 15.125 64.078125 
Q 24.65625 74.21875 41.21875 74.21875 
Q 47.75 74.21875 53.53125 72.484375 
Q 59.328125 70.75 64.40625 67.28125 
z
" id="DejaVuSans-67"/>
      <path d="M 30.609375 48.390625 
Q 23.390625 48.390625 19.1875 42.75 
Q 14.984375 37.109375 14.984375 27.296875 
Q 14.984375 17.484375 19.15625 11.84375 
Q 23.34375 6.203125 30.609375 6.203125 
Q 37.796875 6.203125 41.984375 11.859375 
Q 46.1875 17.53125 46.1875 27.296875 
Q 46.1875 37.015625 41.984375 42.703125 
Q 37.796875 48.390625 30.609375 48.390625 
z
M 30.609375 56 
Q 42.328125 56 49.015625 48.375 
Q 55.71875 40.765625 55.71875 27.296875 
Q 55.71875 13.875 49.015625 6.21875 
Q 42.328125 -1.421875 30.609375 -1.421875 
Q 18.84375 -1.421875 12.171875 6.21875 
Q 5.515625 13.875 5.515625 27.296875 
Q 5.515625 40.765625 12.171875 48.375 
Q 18.84375 56 30.609375 56 
z
" id="DejaVuSans-111"/>
      <path d="M 32.171875 -5.078125 
Q 28.375 -14.84375 24.75 -17.8125 
Q 21.140625 -20.796875 15.09375 -20.796875 
L 7.90625 -20.796875 
L 7.90625 -13.28125 
L 13.1875 -13.28125 
Q 16.890625 -13.28125 18.9375 -11.515625 
Q 21 -9.765625 23.484375 -3.21875 
L 25.09375 0.875 
L 2.984375 54.6875 
L 12.5 54.6875 
L 29.59375 11.921875 
L 46.6875 54.6875 
L 56.203125 54.6875 
z
" id="DejaVuSans-121"/>
     </defs>
     <use xlink:href="#DejaVuSans-67"/>
     <use x="69.824219" xlink:href="#DejaVuSans-97"/>
     <use x="131.103516" xlink:href="#DejaVuSans-116"/>
     <use x="170.3125" xlink:href="#DejaVuSans-101"/>
     <use x="231.835938" xlink:href="#DejaVuSans-103"/>
     <use x="295.3125" xlink:href="#DejaVuSans-111"/>
     <use x="356.494141" xlink:href="#DejaVuSans-114"/>
     <use x="397.607422" xlink:href="#DejaVuSans-121"/>
    </g>
   </g>
   <g id="patch_4">
    <path clip-path="url(#paae4a91c98)" d="M 248.087483 50.285937 
L 263.927483 50.285937 
L 263.927483 34.445937 
L 248.087483 34.445937 
z
" style="fill:#f2f2f2;"/>
   </g>
   <g id="patch_5">
    <path clip-path="url(#paae4a91c98)" d="M 248.087483 50.285937 
L 263.927483 50.285937 
L 263.927483 34.445937 
L 248.087483 34.445937 
z
" style="fill:#440154;"/>
   </g>
   <g id="text_30">
    <!-- Missing data -->
    <g transform="translate(266.927483 44.794187)scale(0.088 -0.088)">
     <defs>
      <path d="M 9.8125 72.90625 
L 24.515625 72.90625 
L 43.109375 23.296875 
L 61.8125 72.90625 
L 76.515625 72.90625 
L 76.515625 0 
L 66.890625 0 
L 66.890625 64.015625 
L 48.09375 14.015625 
L 38.1875 14.015625 
L 19.390625 64.015625 
L 19.390625 0 
L 9.8125 0 
z
" id="DejaVuSans-77"/>
      <path id="DejaVuSans-32"/>
      <path d="M 45.40625 46.390625 
L 45.40625 75.984375 
L 54.390625 75.984375 
L 54.390625 0 
L 45.40625 0 
L 45.40625 8.203125 
Q 42.578125 3.328125 38.25 0.953125 
Q 33.9375 -1.421875 27.875 -1.421875 
Q 17.96875 -1.421875 11.734375 6.484375 
Q 5.515625 14.40625 5.515625 27.296875 
Q 5.515625 40.1875 11.734375 48.09375 
Q 17.96875 56 27.875 56 
Q 33.9375 56 38.25 53.625 
Q 42.578125 51.265625 45.40625 46.390625 
z
M 14.796875 27.296875 
Q 14.796875 17.390625 18.875 11.75 
Q 22.953125 6.109375 30.078125 6.109375 
Q 37.203125 6.109375 41.296875 11.75 
Q 45.40625 17.390625 45.40625 27.296875 
Q 45.40625 37.203125 41.296875 42.84375 
Q 37.203125 48.484375 30.078125 48.484375 
Q 22.953125 48.484375 18.875 42.84375 
Q 14.796875 37.203125 14.796875 27.296875 
z
" id="DejaVuSans-100"/>
     </defs>
     <use xlink:href="#DejaVuSans-77"/>
     <use x="86.279297" xlink:href="#DejaVuSans-105"/>
     <use x="114.0625" xlink:href="#DejaVuSans-115"/>
     <use x="166.162109" xlink:href="#DejaVuSans-115"/>
     <use x="218.261719" xlink:href="#DejaVuSans-105"/>
     <use x="246.044922" xlink:href="#DejaVuSans-110"/>
     <use x="309.423828" xlink:href="#DejaVuSans-103"/>
     <use x="372.900391" xlink:href="#DejaVuSans-32"/>
     <use x="404.6875" xlink:href="#DejaVuSans-100"/>
     <use x="468.164062" xlink:href="#DejaVuSans-97"/>
     <use x="529.443359" xlink:href="#DejaVuSans-116"/>
     <use x="568.652344" xlink:href="#DejaVuSans-97"/>
    </g>
   </g>
   <g id="patch_6">
    <path clip-path="url(#p2e4c4d94e4)" d="M 327.360608 50.285937 
L 343.200608 50.285937 
L 343.200608 34.445937 
L 327.360608 34.445937 
z
" style="fill:#f2f2f2;"/>
   </g>
   <g id="patch_7">
    <path clip-path="url(#p2e4c4d94e4)" d="M 327.360608 50.285937 
L 343.200608 50.285937 
L 343.200608 34.445937 
L 327.360608 34.445937 
z
" style="fill:#31688e;"/>
   </g>
   <g id="text_31">
    <!-- dS &lt;= 0.1 -->
    <g transform="translate(346.200608 44.794187)scale(0.088 -0.088)">
     <defs>
      <path d="M 73.1875 49.21875 
L 22.796875 31.296875 
L 73.1875 13.484375 
L 73.1875 4.59375 
L 10.59375 27.296875 
L 10.59375 35.40625 
L 73.1875 58.109375 
z
" id="DejaVuSans-60"/>
      <path d="M 10.59375 45.40625 
L 73.1875 45.40625 
L 73.1875 37.203125 
L 10.59375 37.203125 
z
M 10.59375 25.484375 
L 73.1875 25.484375 
L 73.1875 17.1875 
L 10.59375 17.1875 
z
" id="DejaVuSans-61"/>
     </defs>
     <use xlink:href="#DejaVuSans-100"/>
     <use x="63.476562" xlink:href="#DejaVuSans-83"/>
     <use x="126.953125" xlink:href="#DejaVuSans-32"/>
     <use x="158.740234" xlink:href="#DejaVuSans-60"/>
     <use x="242.529297" xlink:href="#DejaVuSans-61"/>
     <use x="326.318359" xlink:href="#DejaVuSans-32"/>
     <use x="358.105469" xlink:href="#DejaVuSans-48"/>
     <use x="421.728516" xlink:href="#DejaVuSans-46"/>
     <use x="453.515625" xlink:href="#DejaVuSans-49"/>
    </g>
   </g>
   <g id="patch_8">
    <path clip-path="url(#pafc095fccf)" d="M 396.710358 50.285937 
L 412.550358 50.285937 
L 412.550358 34.445937 
L 396.710358 34.445937 
z
" style="fill:#f2f2f2;"/>
   </g>
   <g id="patch_9">
    <path clip-path="url(#pafc095fccf)" d="M 396.710358 50.285937 
L 412.550358 50.285937 
L 412.550358 34.445937 
L 396.710358 34.445937 
z
" style="fill:#35b779;"/>
   </g>
   <g id="text_32">
    <!-- LRT &lt; 6 -->
    <g transform="translate(415.550358 44.794187)scale(0.088 -0.088)">
     <defs>
      <path d="M 9.8125 72.90625 
L 19.671875 72.90625 
L 19.671875 8.296875 
L 55.171875 8.296875 
L 55.171875 0 
L 9.8125 0 
z
" id="DejaVuSans-76"/>
      <path d="M 44.390625 34.1875 
Q 47.5625 33.109375 50.5625 29.59375 
Q 53.5625 26.078125 56.59375 19.921875 
L 66.609375 0 
L 56 0 
L 46.6875 18.703125 
Q 43.0625 26.03125 39.671875 28.421875 
Q 36.28125 30.8125 30.421875 30.8125 
L 19.671875 30.8125 
L 19.671875 0 
L 9.8125 0 
L 9.8125 72.90625 
L 32.078125 72.90625 
Q 44.578125 72.90625 50.734375 67.671875 
Q 56.890625 62.453125 56.890625 51.90625 
Q 56.890625 45.015625 53.6875 40.46875 
Q 50.484375 35.9375 44.390625 34.1875 
z
M 19.671875 64.796875 
L 19.671875 38.921875 
L 32.078125 38.921875 
Q 39.203125 38.921875 42.84375 42.21875 
Q 46.484375 45.515625 46.484375 51.90625 
Q 46.484375 58.296875 42.84375 61.546875 
Q 39.203125 64.796875 32.078125 64.796875 
z
" id="DejaVuSans-82"/>
      <path d="M -0.296875 72.90625 
L 61.375 72.90625 
L 61.375 64.59375 
L 35.5 64.59375 
L 35.5 0 
L 25.59375 0 
L 25.59375 64.59375 
L -0.296875 64.59375 
z
" id="DejaVuSans-84"/>
      <path d="M 33.015625 40.375 
Q 26.375 40.375 22.484375 35.828125 
Q 18.609375 31.296875 18.609375 23.390625 
Q 18.609375 15.53125 22.484375 10.953125 
Q 26.375 6.390625 33.015625 6.390625 
Q 39.65625 6.390625 43.53125 10.953125 
Q 47.40625 15.53125 47.40625 23.390625 
Q 47.40625 31.296875 43.53125 35.828125 
Q 39.65625 40.375 33.015625 40.375 
z
M 52.59375 71.296875 
L 52.59375 62.3125 
Q 48.875 64.0625 45.09375 64.984375 
Q 41.3125 65.921875 37.59375 65.921875 
Q 27.828125 65.921875 22.671875 59.328125 
Q 17.53125 52.734375 16.796875 39.40625 
Q 19.671875 43.65625 24.015625 45.921875 
Q 28.375 48.1875 33.59375 48.1875 
Q 44.578125 48.1875 50.953125 41.515625 
Q 57.328125 34.859375 57.328125 23.390625 
Q 57.328125 12.15625 50.6875 5.359375 
Q 44.046875 -1.421875 33.015625 -1.421875 
Q 20.359375 -1.421875 13.671875 8.265625 
Q 6.984375 17.96875 6.984375 36.375 
Q 6.984375 53.65625 15.1875 63.9375 
Q 23.390625 74.21875 37.203125 74.21875 
Q 40.921875 74.21875 44.703125 73.484375 
Q 48.484375 72.75 52.59375 71.296875 
z
" id="DejaVuSans-54"/>
     </defs>
     <use xlink:href="#DejaVuSans-76"/>
     <use x="55.712891" xlink:href="#DejaVuSans-82"/>
     <use x="117.945312" xlink:href="#DejaVuSans-84"/>
     <use x="179.029297" xlink:href="#DejaVuSans-32"/>
     <use x="210.816406" xlink:href="#DejaVuSans-60"/>
     <use x="294.605469" xlink:href="#DejaVuSans-32"/>
     <use x="326.392578" xlink:href="#DejaVuSans-54"/>
    </g>
   </g>
   <g id="patch_10">
    <path clip-path="url(#p89d2aefe4a)" d="M 454.871733 50.285937 
L 470.711733 50.285937 
L 470.711733 34.445937 
L 454.871733 34.445937 
z
" style="fill:#f2f2f2;"/>
   </g>
   <g id="patch_11">
    <path clip-path="url(#p89d2aefe4a)" d="M 454.871733 50.285937 
L 470.711733 50.285937 
L 470.711733 34.445937 
L 454.871733 34.445937 
z
" style="fill:#fde725;"/>
   </g>
   <g id="text_33">
    <!-- LRT &gt; 6 -->
    <g transform="translate(473.711733 44.794187)scale(0.088 -0.088)">
     <defs>
      <path d="M 10.59375 49.21875 
L 10.59375 58.109375 
L 73.1875 35.40625 
L 73.1875 27.296875 
L 10.59375 4.59375 
L 10.59375 13.484375 
L 60.890625 31.296875 
z
" id="DejaVuSans-62"/>
     </defs>
     <use xlink:href="#DejaVuSans-76"/>
     <use x="55.712891" xlink:href="#DejaVuSans-82"/>
     <use x="117.945312" xlink:href="#DejaVuSans-84"/>
     <use x="179.029297" xlink:href="#DejaVuSans-32"/>
     <use x="210.816406" xlink:href="#DejaVuSans-62"/>
     <use x="294.605469" xlink:href="#DejaVuSans-32"/>
     <use x="326.392578" xlink:href="#DejaVuSans-54"/>
    </g>
   </g>
  </g>
 </g>
 <defs>
  <clipPath id="pbd6f2c78d1">
   <rect height="443.52" width="669.6" x="54.060295" y="69.685937"/>
  </clipPath>
  <clipPath id="paae4a91c98">
   <path d="M 248.087483 50.285937 
L 248.087483 34.445937 
L 263.927483 34.445937 
L 263.927483 50.285937 
"/>
  </clipPath>
  <clipPath id="p2e4c4d94e4">
   <path d="M 327.360608 50.285937 
L 327.360608 34.445937 
L 343.200608 34.445937 
L 343.200608 50.285937 
"/>
  </clipPath>
  <clipPath id="pafc095fccf">
   <path d="M 396.710358 50.285937 
L 396.710358 34.445937 
L 412.550358 34.445937 
L 412.550358 50.285937 
"/>
  </clipPath>
  <clipPath id="p89d2aefe4a">
   <path d="M 454.871733 50.285937 
L 454.871733 34.445937 
L 470.711733 34.445937 
L 470.711733 50.285937 
"/>
  </clipPath>
 </defs>
</svg>
